<svg width="38" height="60" viewBox="0 0 38 60" fill="none" xmlns="http://www.w3.org/2000/svg">
<g clip-path="url(#clip0_1_583)">
<path fill-rule="evenodd" clip-rule="evenodd" d="M21.5472 19.934C21.2634 19.6494 21.104 19.2639 21.104 18.862C21.104 18.4601 21.2634 18.0746 21.5472 17.79L28.3412 10.994C28.4822 10.8528 28.6496 10.7409 28.8339 10.6645C29.0182 10.5881 29.2157 10.5488 29.4152 10.5488C29.6147 10.5488 29.8123 10.5881 29.9965 10.6645C30.1808 10.7409 30.3482 10.8528 30.4892 10.994L37.2812 17.79C37.422 17.9308 37.5337 18.0979 37.6099 18.2818C37.6861 18.4658 37.7253 18.6629 37.7253 18.862C37.7253 19.0611 37.6861 19.2582 37.6099 19.4422C37.5337 19.6261 37.422 19.7932 37.2812 19.934L30.4892 26.73C30.3482 26.8711 30.1808 26.9831 29.9965 27.0595C29.8123 27.1359 29.6147 27.1752 29.4152 27.1752C29.2157 27.1752 29.0182 27.1359 28.8339 27.0595C28.6496 26.9831 28.4822 26.8711 28.3412 26.73L21.5472 19.934ZM17.7912 16.18L10.9972 9.38599C10.8556 9.24528 10.7432 9.07794 10.6665 8.89362C10.5898 8.7093 10.5503 8.51163 10.5503 8.31199C10.5503 8.11235 10.5898 7.91468 10.6665 7.73036C10.7432 7.54603 10.8556 7.3787 10.9972 7.23799L17.7912 0.443989C18.0758 0.160157 18.4613 0.000762939 18.8632 0.000762939C19.2651 0.000762939 19.6507 0.160157 19.9352 0.443989L26.7312 7.23799C26.8724 7.37897 26.9843 7.54639 27.0607 7.73068C27.1371 7.91496 27.1764 8.1125 27.1764 8.31199C27.1764 8.51148 27.1371 8.70902 27.0607 8.8933C26.9843 9.07759 26.8724 9.24501 26.7312 9.38599L19.9352 16.18C19.6507 16.4638 19.2651 16.6232 18.8632 16.6232C18.4613 16.6232 18.0758 16.4638 17.7912 16.18ZM17.7912 21.546C18.0758 21.2622 18.4613 21.1028 18.8632 21.1028C19.2651 21.1028 19.6507 21.2622 19.9352 21.546L26.7312 28.34C26.8724 28.481 26.9843 28.6484 27.0607 28.8327C27.1371 29.017 27.1764 29.2145 27.1764 29.414C27.1764 29.6135 27.1371 29.811 27.0607 29.9953C26.9843 30.1796 26.8724 30.347 26.7312 30.488L19.9352 37.28C19.7945 37.4208 19.6273 37.5324 19.4434 37.6086C19.2595 37.6848 19.0623 37.724 18.8632 37.724C18.6641 37.724 18.467 37.6848 18.2831 37.6086C18.0991 37.5324 17.932 37.4208 17.7912 37.28L10.9972 30.488C10.8556 30.3473 10.7432 30.1799 10.6665 29.9956C10.5898 29.8113 10.5503 29.6136 10.5503 29.414C10.5503 29.2143 10.5898 29.0167 10.6665 28.8324C10.7432 28.648 10.8556 28.4807 10.9972 28.34L17.7912 21.546ZM7.24122 26.73L0.445224 19.936C0.304081 19.795 0.192111 19.6276 0.115717 19.4433C0.0393216 19.259 0 19.0615 0 18.862C0 18.6625 0.0393216 18.465 0.115717 18.2807C0.192111 18.0964 0.304081 17.929 0.445224 17.788L7.24122 10.996C7.382 10.8552 7.54912 10.7435 7.73306 10.6673C7.91699 10.5912 8.11413 10.5519 8.31322 10.5519C8.51231 10.5519 8.70946 10.5912 8.89339 10.6673C9.07732 10.7435 9.24445 10.8552 9.38522 10.996L16.1812 17.788C16.4658 18.073 16.6256 18.4593 16.6256 18.862C16.6256 19.2647 16.4658 19.651 16.1812 19.936L9.38522 26.73C9.10066 27.0138 8.71514 27.1732 8.31322 27.1732C7.91131 27.1732 7.52579 27.0138 7.24122 26.73ZM30.4872 32.096L37.2812 38.89C37.4228 39.0307 37.5352 39.198 37.6119 39.3824C37.6886 39.5667 37.7281 39.7643 37.7281 39.964C37.7281 40.1636 37.6886 40.3613 37.6119 40.5456C37.5352 40.7299 37.4228 40.8973 37.2812 41.038L30.4872 47.832C30.2027 48.1158 29.8171 48.2752 29.4152 48.2752C29.0133 48.2752 28.6278 48.1158 28.3432 47.832L21.5452 41.038C21.2607 40.753 21.1008 40.3667 21.1008 39.964C21.1008 39.5613 21.2607 39.175 21.5452 38.89L28.3432 32.096C28.6278 31.8122 29.0133 31.6528 29.4152 31.6528C29.8171 31.6528 30.2027 31.8122 30.4872 32.096ZM19.9352 42.646L26.7312 49.44C26.8728 49.5807 26.9852 49.748 27.0619 49.9324C27.1386 50.1167 27.1781 50.3143 27.1781 50.514C27.1781 50.7136 27.1386 50.9113 27.0619 51.0956C26.9852 51.2799 26.8728 51.4473 26.7312 51.588L19.9352 58.38C19.6507 58.6638 19.2651 58.8232 18.8632 58.8232C18.4613 58.8232 18.0758 58.6638 17.7912 58.38L10.9952 51.586C10.8541 51.445 10.7421 51.2776 10.6657 51.0933C10.5893 50.909 10.55 50.7115 10.55 50.512C10.55 50.3125 10.5893 50.115 10.6657 49.9307C10.7421 49.7464 10.8541 49.579 10.9952 49.438L17.7912 42.644C18.0758 42.3602 18.4613 42.2008 18.8632 42.2008C19.2651 42.2008 19.6507 42.3622 19.9352 42.646ZM16.1812 38.89C16.4657 39.1746 16.6254 39.5606 16.6254 39.963C16.6254 40.3654 16.4657 40.7513 16.1812 41.036L9.38722 47.832C9.10223 48.1166 8.71596 48.2764 8.31322 48.2764C7.91049 48.2764 7.52421 48.1166 7.23922 47.832L0.445224 41.036C0.160781 40.7513 0.00100021 40.3654 0.00100021 39.963C0.00100021 39.5606 0.160781 39.1746 0.445224 38.89L7.23922 32.096C7.38021 31.9548 7.54763 31.8429 7.73191 31.7665C7.9162 31.6901 8.11373 31.6508 8.31322 31.6508C8.51272 31.6508 8.71025 31.6901 8.89454 31.7665C9.07882 31.8429 9.24624 31.9548 9.38722 32.096L16.1812 38.89Z" fill="#E6C3A5"/>
</g>
<defs>
<clipPath id="clip0_1_583">
<rect width="38" height="60" fill="white"/>
</clipPath>
</defs>
</svg>
