<svg width="152" height="153" viewBox="0 0 152 153" fill="none" xmlns="http://www.w3.org/2000/svg">
<g clip-path="url(#clip0_1_171)">
<g clip-path="url(#clip1_1_171)">
<path d="M17.9433 140.241L117.587 152.157C128.44 153.456 138.301 145.804 139.776 135.016L139.818 134.673L151.731 34.979C153.04 24.0118 145.212 14.0587 134.245 12.7456L34.602 0.830185C23.7488 -0.469345 13.8879 7.18268 12.4127 17.9706L0.457717 118.008C-0.851069 128.975 6.97656 138.928 17.9433 140.241Z" fill="#F0AD84"/>
<path d="M55.3046 81.6465C54.6118 80.6207 53.7065 79.7648 52.5888 79.0788C51.471 78.3929 50.1398 77.955 48.5953 77.7654C47.1881 77.5926 45.8596 77.6647 44.61 77.9816C43.3604 78.2985 42.2458 78.828 41.2663 79.57C40.2867 80.312 39.4754 81.2446 38.8323 82.3676C38.1892 83.4906 37.7803 84.7644 37.6054 86.1888C37.4263 87.6475 37.5171 89 37.878 90.2463C38.2389 91.4926 38.8144 92.5867 39.6046 93.5286C40.3948 94.4705 41.3632 95.2383 42.5097 95.8321C43.6562 96.4258 44.9245 96.8079 46.3146 96.9786C47.6017 97.1367 48.8953 97.0647 50.1954 96.7627C51.4954 96.4607 52.5853 95.9194 53.465 95.139L50.8456 91.7863C50.3642 92.302 49.7719 92.6561 49.0689 92.8485C48.3659 93.0409 47.6626 93.0939 46.959 93.0075C46.1867 92.9127 45.4962 92.6842 44.8874 92.322C44.2786 91.9598 43.7731 91.5015 43.3708 90.9469C42.9686 90.3923 42.6804 89.7603 42.5062 89.0508C42.332 88.3413 42.2944 87.5833 42.3934 86.7767C42.4946 85.9529 42.716 85.2136 43.0577 84.5588C43.3994 83.9039 43.8277 83.3598 44.3425 82.9266C44.8574 82.4933 45.4491 82.1784 46.1178 81.9818C46.7865 81.7851 47.4984 81.7332 48.2535 81.8259C49.1288 81.9334 49.8714 82.1988 50.4814 82.6221C51.0914 83.0454 51.56 83.5558 51.8873 84.1535L55.3046 81.6465Z" fill="#A54E34"/>
<path d="M75.6974 90.9182C75.8744 89.4766 75.7873 88.1289 75.4361 86.8751C75.0849 85.6212 74.5195 84.5153 73.74 83.5573C72.9605 82.5993 71.9899 81.8138 70.8283 81.2008C69.6668 80.5878 68.3738 80.1939 66.9494 80.019C65.525 79.8441 64.1794 79.9141 62.9126 80.2289C61.6458 80.5437 60.5184 81.0716 59.5302 81.8125C58.5421 82.5535 57.726 83.4898 57.0818 84.6214C56.4377 85.7531 56.0271 87.0396 55.8501 88.4812C55.671 89.9399 55.7582 91.2876 56.1115 92.5243C56.4648 93.761 57.0328 94.8455 57.8155 95.7777C58.5982 96.71 59.5671 97.4735 60.7222 98.0683C61.8773 98.663 63.167 99.0479 64.5914 99.2227C66.0158 99.3976 67.3647 99.3368 68.6379 99.0402C69.9112 98.7436 71.0403 98.2377 72.0253 97.5225C73.0102 96.8072 73.8237 95.8924 74.4657 94.7779C75.1078 93.6635 75.5183 92.3769 75.6974 90.9182ZM70.9866 90.3397C70.8897 91.1292 70.6704 91.8513 70.3286 92.5062C69.9869 93.161 69.5587 93.7051 69.0438 94.1383C68.529 94.5716 67.9324 94.8903 67.2541 95.0945C66.5758 95.2986 65.8505 95.3533 65.0782 95.2584C64.3059 95.1636 63.6197 94.9356 63.0195 94.5745C62.4193 94.2134 61.9175 93.7598 61.5142 93.2138C61.1109 92.6678 60.827 92.0363 60.6624 91.3193C60.4979 90.6023 60.4641 89.8491 60.561 89.0596C60.6621 88.2359 60.8841 87.4923 61.2268 86.8289C61.5696 86.1654 61.9989 85.6128 62.5148 85.1709C63.0307 84.7291 63.6235 84.4056 64.2933 84.2004C64.963 83.9952 65.684 83.94 66.4563 84.0348C67.2286 84.1296 67.9148 84.3576 68.515 84.7187C69.1152 85.0799 69.6164 85.5377 70.0187 86.0923C70.4209 86.6469 70.7081 87.2875 70.8802 88.0141C71.0523 88.7408 71.0878 89.516 70.9866 90.3397Z" fill="#A54E34"/>
<path d="M96.2687 93.4179C96.4647 91.8218 96.3378 90.4083 95.8879 89.1772C95.4381 87.9461 94.7742 86.8977 93.8962 86.0322C93.0183 85.1666 91.9916 84.4831 90.8164 83.9817C89.6411 83.4802 88.4271 83.1526 87.1743 82.9988L80.3783 82.1644L78.1405 100.39L84.7305 101.199C86.0176 101.357 87.306 101.363 88.5957 101.216C89.8854 101.07 91.062 100.709 92.1255 100.134C93.1891 99.5593 94.0928 98.7252 94.8368 97.6319C95.5807 96.5387 96.058 95.134 96.2687 93.4179ZM91.6866 92.8553C91.5602 93.8849 91.288 94.7182 90.8701 95.355C90.4523 95.9918 89.9397 96.4776 89.3324 96.8124C88.7251 97.1472 88.0549 97.3567 87.3216 97.4409C86.5883 97.525 85.8441 97.5207 85.089 97.428L82.9009 97.1594L84.2095 86.5021L86.2946 86.7581C87.084 86.855 87.8324 87.0384 88.5396 87.3081C89.2469 87.5779 89.8541 87.9529 90.3612 88.4333C90.8684 88.9136 91.2472 89.5176 91.4975 90.2451C91.7479 90.9727 91.8109 91.8427 91.6866 92.8553Z" fill="#A54E34"/>
<path d="M100.946 84.6898L98.7084 102.915L110.962 104.42L111.42 100.687L103.414 99.7042L103.835 96.2805L111.403 97.2097L111.836 93.683L104.268 92.7538L104.732 88.9696L113.201 90.0095L113.663 86.2512L100.946 84.6898Z" fill="#A54E34"/>
<path d="M34.3842 50.3865L32.1464 68.6121L44.3997 70.1166L44.858 66.3839L36.8521 65.401L37.2725 61.9772L44.8408 62.9065L45.2738 59.3798L37.7056 58.4505L38.1702 54.6664L46.6394 55.7063L47.1009 51.9479L34.3842 50.3865Z" fill="#A54E34"/>
<path d="M63.0096 53.9013L61.1544 57.3057L54.101 56.4396L53.2018 52.6971L48.4137 52.1092L53.8214 71.2735L58.0946 71.7981L67.9006 54.5019L63.0096 53.9013ZM56.4781 66.661L54.9294 60.1212L59.5115 60.6838L56.4781 66.661Z" fill="#A54E34"/>
<path d="M78.0344 69.4382C77.5979 69.8724 77.0576 70.1936 76.4136 70.402C75.7696 70.6104 75.1644 70.6798 74.5981 70.6102C74.3063 70.5744 74.0135 70.5123 73.7195 70.424C73.4254 70.3356 73.1673 70.2037 72.9449 70.0284C72.7226 69.853 72.5441 69.6394 72.4095 69.3877C72.2749 69.136 72.2297 68.83 72.274 68.4696C72.3119 68.1607 72.4079 67.9112 72.5619 67.721C72.7159 67.5309 72.9268 67.3739 73.1946 67.25C73.4624 67.1261 73.7758 67.0209 74.1349 66.9343C74.4939 66.8477 74.8964 66.7621 75.3423 66.6775C75.9854 66.5474 76.6568 66.3991 77.3567 66.2324C78.0565 66.0657 78.7063 65.8102 79.3061 65.4657C79.9058 65.1213 80.4233 64.6666 80.8585 64.1016C81.2937 63.5366 81.5671 62.7993 81.6788 61.8898C81.8073 60.8429 81.7254 59.914 81.4331 59.1029C81.1407 58.2918 80.699 57.5973 80.108 57.0196C79.5169 56.4418 78.8157 55.9812 78.0043 55.6377C77.1929 55.2942 76.341 55.0676 75.4486 54.958C74.1443 54.7979 72.855 54.8704 71.5807 55.1756C70.3064 55.4808 69.2143 56.0043 68.3045 56.7462L70.8273 60.0348C71.3409 59.5404 71.9851 59.1535 72.7597 58.8741C73.5344 58.5947 74.2821 58.4992 75.0029 58.5877C75.329 58.6277 75.6422 58.701 75.9427 58.8076C76.2432 58.9142 76.4998 59.0589 76.7125 59.2418C76.9252 59.4247 77.0844 59.6533 77.1901 59.9276C77.2958 60.2019 77.3265 60.5192 77.2823 60.8796C77.2401 61.2228 77.1185 61.5041 76.9174 61.7232C76.7163 61.9424 76.4448 62.1312 76.1031 62.2896C75.7614 62.448 75.3446 62.5797 74.8526 62.6848C74.3607 62.7899 73.8028 62.8999 73.1789 63.015C72.5723 63.1321 71.9742 63.2851 71.3849 63.4741C70.7955 63.663 70.2573 63.9323 69.7701 64.2818C69.283 64.6314 68.8711 65.0773 68.5345 65.6195C68.1979 66.1618 67.9791 66.8448 67.8779 67.6685C67.7536 68.6811 67.8531 69.573 68.1765 70.3444C68.4999 71.1157 68.9678 71.7742 69.5802 72.3197C70.1926 72.8653 70.9061 73.2969 71.7207 73.6147C72.5352 73.9325 73.3716 74.144 74.2296 74.2494C75.2593 74.3758 76.3337 74.3161 77.4526 74.0702C78.5716 73.8244 79.5796 73.382 80.4768 72.7431L78.0344 69.4382Z" fill="#A54E34"/>
<path d="M85.9202 56.7144L83.6824 74.9399L88.1101 75.4836L90.3479 57.2581L85.9202 56.7144Z" fill="#A54E34"/>
<path d="M94.7498 57.7985L92.512 76.024L104.765 77.5286L105.224 73.7959L97.2177 72.8129L97.6381 69.3892L105.206 70.3185L105.639 66.7918L98.0712 65.8625L98.5358 62.0784L107.005 63.1183L107.466 59.3599L94.7498 57.7985Z" fill="#A54E34"/>
<path d="M120.775 60.994L115.949 67.744L114.455 67.5607L115.344 60.3271L111.019 59.7961L108.781 78.0216L115.732 78.875C116.607 78.9825 117.472 78.9972 118.326 78.9192C119.181 78.8412 119.964 78.6283 120.678 78.2803C121.391 77.9324 121.989 77.4309 122.47 76.7757C122.951 76.1206 123.256 75.2696 123.384 74.2227C123.536 72.9871 123.329 71.9077 122.763 70.9846C122.197 70.0615 121.344 69.3471 120.204 68.8413L125.924 61.6261L120.775 60.994ZM119.043 73.6113C118.99 74.0404 118.858 74.3768 118.645 74.6207C118.432 74.8646 118.175 75.0421 117.874 75.1532C117.573 75.2643 117.243 75.324 116.885 75.3323C116.527 75.3406 116.185 75.3247 115.859 75.2846L113.516 74.997L114.038 70.7495L116.123 71.0056C116.483 71.0498 116.849 71.1251 117.219 71.2316C117.589 71.338 117.919 71.4874 118.209 71.6798C118.499 71.8722 118.725 72.1263 118.886 72.4423C119.048 72.7583 119.1 73.148 119.043 73.6113Z" fill="#A54E34"/>
</g>
</g>
<defs>
<clipPath id="clip0_1_171">
<rect width="152" height="153" fill="white" transform="matrix(1 0 0 -1 0 153)"/>
</clipPath>
<clipPath id="clip1_1_171">
<rect width="152" height="153" fill="white" transform="matrix(1 0 0 -1 0 153)"/>
</clipPath>
</defs>
</svg>
