<svg width="155" height="153" viewBox="0 0 155 153" fill="none" xmlns="http://www.w3.org/2000/svg">
<g clip-path="url(#clip0_1_186)">
<g clip-path="url(#clip1_1_186)">
<path d="M70.4472 149.888C74.2145 154.037 80.7391 154.037 84.5064 149.888L89.1046 144.822C91.7003 141.965 95.7677 140.962 99.3936 142.287L105.819 144.635C111.084 146.559 116.861 143.527 118.268 138.102L119.986 131.48C120.955 127.744 124.091 124.966 127.918 124.454L134.699 123.548C140.255 122.804 143.961 117.436 142.686 111.978L141.129 105.316C140.251 101.557 141.737 97.6411 144.887 95.4092L150.47 91.4562C155.044 88.2161 155.83 81.7397 152.164 77.5L147.69 72.3251C145.165 69.405 144.66 65.2469 146.413 61.8065L149.518 55.7118C152.063 50.7173 149.75 44.6178 144.533 42.5672L138.166 40.0639C134.573 38.6512 132.193 35.2042 132.146 31.3442L132.064 24.5042C131.995 18.8993 127.112 14.5732 121.539 15.1817L114.738 15.9241C110.901 16.3428 107.191 14.3966 105.356 10.9999L102.103 4.98207C99.4383 0.0512238 93.1036 -1.51045 88.4523 1.61761L82.7756 5.43491C79.5713 7.58896 75.3823 7.58896 72.178 5.43491L66.5013 1.61761C61.85 -1.51045 55.5154 0.0512238 52.8503 4.98207L49.5975 10.9999C47.7622 14.3957 44.0528 16.3428 40.2152 15.9241L33.4143 15.1817C27.8421 14.5732 22.9582 18.8993 22.8898 24.5042L22.8072 31.3442C22.7607 35.2042 20.3804 38.6512 16.7878 40.0639L10.4208 42.5672C5.20366 44.6178 2.89083 50.7173 5.43533 55.7118L8.54094 61.8065C10.2936 65.2469 9.7885 69.405 7.26395 72.3251L2.78924 77.5C-0.876539 81.7397 -0.090404 88.2161 4.48399 91.4562L10.0667 95.4092C13.2169 97.6411 14.7028 101.557 13.8246 105.316L12.2675 111.978C10.9924 117.436 14.699 122.804 20.2551 123.548L27.036 124.454C30.8622 124.966 33.9982 127.744 34.9676 131.48L36.6851 138.102C38.0922 143.527 43.8695 146.559 49.1342 144.635L55.56 142.287C59.1859 140.962 63.2533 141.965 65.849 144.822L70.4472 149.888Z" fill="#DBEBEA"/>
<path d="M59.1581 114.044C58.9577 112.626 57.6461 111.639 56.229 111.84C54.812 112.04 53.8254 113.352 54.0259 114.77C54.2263 116.188 55.5379 117.175 56.955 116.974C58.372 116.774 59.3586 115.461 59.1581 114.044Z" fill="#384C75"/>
<path d="M87.5631 112.187C86.624 111.953 85.6062 111.953 84.5105 112.108C83.4927 112.265 82.5536 112.578 81.7713 113.048C80.9889 113.517 80.2844 114.144 79.7365 114.848C79.1887 115.553 78.7966 116.413 78.6408 117.274C78.4842 118.135 78.4054 119.153 78.562 120.169C78.7187 121.187 79.1099 122.126 79.5799 122.908C80.0489 123.691 80.6756 124.317 81.458 124.865C82.2413 125.413 83.0236 125.726 83.9627 125.883C84.9017 126.039 85.8417 126.039 86.8586 125.883C87.7976 125.726 88.6588 125.413 89.5199 124.944C90.3811 124.474 91.0068 123.848 91.4768 123.144L88.9721 121.344C88.7376 121.813 88.3454 122.205 87.9543 122.517C87.4852 122.83 87.0152 122.987 86.5452 123.065C85.9974 123.144 85.4495 123.144 84.9805 122.987C84.5105 122.83 84.0415 122.674 83.6493 122.36C83.2582 122.048 82.9448 121.657 82.6324 121.187C82.3191 120.717 82.1625 120.248 82.0846 119.622C82.0058 118.996 82.0058 118.448 82.0846 117.978C82.1625 117.508 82.397 116.961 82.6324 116.569C82.867 116.178 83.2582 115.787 83.6493 115.553C84.0415 115.317 84.5893 115.083 85.1372 115.005C85.7629 114.926 86.3107 114.926 86.8586 115.083C87.4064 115.239 87.7976 115.474 88.1109 115.865L89.9899 113.439C89.2854 112.892 88.5021 112.422 87.5631 112.187Z" fill="#384C75"/>
<path d="M106.4 110.705C105.837 109.726 105.194 108.991 104.469 108.42C103.745 107.849 102.86 107.441 101.975 107.195C101.09 106.951 100.125 106.951 99.1583 107.114C98.1929 107.277 97.2275 107.603 96.3422 108.174C95.3768 108.747 94.6525 109.399 94.0083 110.134C93.365 110.868 92.9629 111.766 92.7218 112.663C92.4797 113.561 92.3997 114.459 92.5607 115.439C92.7218 116.418 93.0429 117.398 93.5261 118.295C94.0893 119.275 94.7326 120.009 95.4568 120.581C96.2621 121.152 97.0664 121.56 97.9518 121.805C98.8371 122.049 99.7215 122.049 100.688 121.886C101.653 121.724 102.619 121.397 103.504 120.826C104.469 120.254 105.194 119.601 105.837 118.866C106.481 118.132 106.883 117.316 107.205 116.418C107.446 115.521 107.527 114.623 107.446 113.644C107.366 112.663 106.883 111.684 106.4 110.705ZM103.262 112.5C103.584 112.99 103.745 113.561 103.826 114.133C103.906 114.704 103.906 115.194 103.826 115.683C103.745 116.173 103.504 116.663 103.182 117.071C102.86 117.479 102.457 117.887 101.975 118.132C101.492 118.458 100.929 118.622 100.446 118.622C99.9635 118.704 99.4003 118.622 98.9172 118.458C98.434 118.295 97.9518 118.05 97.5496 117.724C97.1465 117.398 96.7443 116.908 96.5032 116.418C96.1811 115.847 96.0201 115.357 95.859 114.786C95.779 114.215 95.779 113.725 95.859 113.235C95.94 112.746 96.1811 112.255 96.5032 111.848C96.8253 111.44 97.2275 111.032 97.7097 110.786C98.1929 110.46 98.7561 110.297 99.2393 110.297C99.7215 110.215 100.285 110.297 100.768 110.46C101.251 110.623 101.733 110.868 102.135 111.195C102.539 111.521 103.021 112.011 103.262 112.5Z" fill="#384C75"/>
<path d="M108.632 96.8794L112.279 106.64V106.72L105.38 101.2L103.477 103.679L114.103 112L116.402 109.04L112.675 99.3598V99.2802L119.574 104.8L121.477 102.32L110.852 94L108.632 96.8794Z" fill="#384C75"/>
<path d="M113.549 85.8022L112.477 88.9319L124.189 98L125.343 94.4691L116.848 88.5309V88.451H127.322L128.477 85L113.549 85.8022Z" fill="#384C75"/>
<path d="M115.477 80.7564L129.314 81L129.477 71.7318L126.628 71.65L126.546 77.7482L123.942 77.6663L124.024 71.8936L121.337 71.8127L121.256 77.5855L118.407 77.5036L118.488 71.0809L115.64 71L115.477 80.7564Z" fill="#384C75"/>
<path d="M113.506 63.0202L119.447 64.3039L119.764 65.3462L114.615 66.951L115.566 70L128.477 66.0683L126.971 61.0943C126.813 60.4529 126.575 59.8914 126.258 59.3298C125.942 58.7683 125.545 58.2866 125.149 57.8856C124.675 57.4847 124.199 57.2433 123.645 57.0837C123.09 56.9231 122.377 57.0029 121.664 57.2433C120.793 57.4847 120.16 57.9654 119.684 58.6077C119.209 59.2491 118.971 60.052 118.971 61.0145L112.477 59.3298L113.506 63.0202ZM122.457 60.3722C122.773 60.2923 123.012 60.2923 123.249 60.3722C123.486 60.4529 123.645 60.5327 123.803 60.7741C123.962 61.0145 124.12 61.175 124.199 61.4154C124.279 61.6558 124.436 61.8971 124.436 62.1375L124.912 63.8221L121.902 64.7048L121.427 63.1808C121.347 62.9395 121.269 62.6193 121.269 62.3779V61.576C121.347 61.3356 121.427 61.0943 121.586 60.8539C121.744 60.6135 122.14 60.4529 122.457 60.3722Z" fill="#384C75"/>
<path d="M117.319 47.5924L108.477 53.353L110.293 56L119.135 50.2394L121.187 53.353L123.477 51.8741L117.476 43L115.187 44.4789L117.319 47.5924Z" fill="#384C75"/>
<path d="M95.2322 42.3989L98.2224 37.556L102.63 40.3809L99.6392 45.2248L102.394 47L109.477 35.3773L106.722 33.6011L104.046 37.9594L99.6392 35.1345L102.315 30.7762L99.5609 29L92.4768 40.6237L95.2322 42.3989Z" fill="#384C75"/>
<path d="M90.3796 40L93.4768 27.1087L84.883 25L84.2641 27.6556L89.9157 28.9843L89.2959 31.4058L83.9542 30.1558L83.3353 32.6559L88.677 33.906L88.0572 36.5625L82.0966 35.1561L81.4768 37.8126L90.3796 40Z" fill="#384C75"/>
<path d="M80.2044 38L80.4768 24.0815L76.7492 24L76.4768 37.9185L80.2044 38Z" fill="#384C75"/>
<path d="M64.9543 39.8905C65.8805 40.0476 66.8845 40.0476 67.9652 39.8125C68.9691 39.5764 69.8186 39.1843 70.5903 38.7141C71.362 38.1649 71.98 37.5367 72.4427 36.8305C72.9063 36.1242 73.2153 35.2619 73.3698 34.3196C73.5234 33.3783 73.5234 32.437 73.2921 31.4167C73.0608 30.3973 72.6749 29.455 72.1346 28.7488C71.5942 27.9645 70.9761 27.4153 70.2044 26.9442C69.4318 26.474 68.5833 26.2389 67.6562 26.0818C66.7299 25.9248 65.8037 26.0028 64.7998 26.2389C63.8736 26.474 63.0241 26.788 62.2524 27.3372C61.4807 27.8864 60.8627 28.5137 60.4768 29.2199L63.0241 30.8675C63.2564 30.3973 63.5645 30.0042 63.9513 29.691C64.4139 29.3769 64.7998 29.1418 65.3401 29.0629C65.8805 28.9058 66.4209 28.9058 66.8845 28.9848C67.348 29.0629 67.8107 29.2989 68.2742 29.534C68.6601 29.8481 69.0459 30.1612 69.2782 30.6324C69.5863 31.1035 69.7408 31.5737 69.8954 32.1229C70.0499 32.6721 70.0499 33.3003 69.9722 33.7705C69.8954 34.3196 69.7408 34.7908 69.5095 35.1829C69.2782 35.5751 68.9691 35.9672 68.5833 36.2813C68.1965 36.5954 67.7339 36.7524 67.1935 36.9095C66.5754 37.0665 66.035 37.0665 65.4947 36.9095C64.9543 36.7524 64.5685 36.5173 64.1826 36.2032L62.4838 38.7921C63.1787 39.3413 64.0281 39.7335 64.9543 39.8905Z" fill="#384C75"/>
<path d="M47.2794 37.4284L53.7902 46L56.4768 44.0956L49.9651 35.5241L53.1395 33.2221L51.4303 31L42.4768 37.4284L44.186 39.6505L47.2794 37.4284Z" fill="#384C75"/>
<path d="M36.5112 56.6069C37.4127 57.2471 38.3142 57.6474 39.2971 57.8077C40.2801 58.0486 41.1816 58.0486 42.083 57.8883C42.9845 57.728 43.885 57.3277 44.705 56.7672C45.5239 56.2066 46.2614 55.4857 46.9164 54.6045C47.5724 53.7233 47.9819 52.8421 48.2274 51.8813C48.4739 50.9204 48.5554 50.0392 48.3914 49.0784C48.2274 48.1972 47.9004 47.316 47.4084 46.5154C46.9164 45.7149 46.1799 44.994 45.2784 44.3528C44.377 43.7125 43.394 43.3122 42.4925 43.1519C41.5096 42.9916 40.6081 42.911 39.7066 43.1519C38.8052 43.3122 37.9862 43.7125 37.1672 44.2731C36.3472 44.8337 35.6098 45.5546 35.0363 46.4348C34.3813 47.316 33.9718 48.1972 33.7253 49.158C33.4798 50.1189 33.3983 51.0001 33.5623 51.8813C33.7253 52.7625 33.9718 53.6436 34.5453 54.4442C34.8732 55.2448 35.5282 55.9657 36.5112 56.6069ZM38.5597 53.7233C38.0687 53.4027 37.6582 53.0024 37.3312 52.5225C37.0032 52.0416 36.8392 51.5607 36.6752 51.0807C36.5937 50.5998 36.5937 50.1189 36.6752 49.5583C36.7577 48.9977 37.0032 48.5178 37.3312 48.1175C37.6582 47.6366 38.0687 47.316 38.5597 46.9963C39.0516 46.7554 39.4611 46.5951 40.0346 46.5154C40.5266 46.4348 41.1001 46.5154 41.5911 46.5951C42.083 46.6757 42.6565 46.9963 43.1475 47.316C43.6395 47.6366 44.049 48.0369 44.377 48.5178C44.705 48.9977 44.9505 49.4787 45.032 49.9596C45.1145 50.4395 45.1145 50.9204 45.032 51.481C44.9505 52.0416 44.705 52.4419 44.377 52.9228C44.049 53.4027 43.6395 53.7233 43.1475 54.0439C42.6565 54.2839 42.247 54.4442 41.6735 54.5239C41.1001 54.6045 40.6081 54.5239 40.1161 54.4442C39.6251 54.3645 39.0516 54.0439 38.5597 53.7233Z" fill="#384C75"/>
<path d="M37.2775 73C37.9366 73 38.5137 72.8317 39.0087 72.5796C39.5038 72.3266 40.0809 71.9063 40.493 71.4022C40.905 70.8125 41.2351 70.1401 41.4001 69.131C41.5642 67.9536 41.4821 66.8599 40.9871 66.0191C40.493 65.0937 39.8329 64.4204 38.9267 64L37.4425 66.8599C37.7716 67.0282 38.0196 67.1966 38.2666 67.5333C38.4317 67.7853 38.5137 68.122 38.4317 68.4577C38.3496 69.0464 38.1016 69.3831 37.6895 69.4677C37.2775 69.5514 36.7824 69.5514 36.1233 69.4677L27.0539 67.869L26.4768 71.3175L35.5462 72.9153C36.1233 73 36.7004 73 37.2775 73Z" fill="#384C75"/>
<path d="M30.7873 85.9532C31.5916 85.8759 32.2357 85.6422 32.7179 85.3322C33.201 85.0212 33.6031 84.5547 33.9252 84.011C34.1663 83.4672 34.4074 82.9235 34.4884 82.3024C34.5684 81.6805 34.5684 80.9812 34.4884 80.282L34.3273 78.729L39.4768 78.1852L39.1547 75L25.4768 76.4758L26.04 81.2922C26.12 81.9914 26.2811 82.6907 26.4421 83.3117C26.6841 83.9337 26.9252 84.4774 27.3273 84.8657C27.7295 85.2539 28.2126 85.6422 28.6947 85.7977C29.3389 86.0314 29.9821 86.0314 30.7873 85.9532ZM30.4652 82.8462C30.1432 82.8462 29.9021 82.8462 29.661 82.768C29.419 82.6907 29.2579 82.5352 29.0978 82.3024C28.9368 82.0687 28.8558 81.836 28.7757 81.6032C28.6947 81.2922 28.6947 81.0594 28.6147 80.7485L28.4537 79.35L31.6716 79.039L31.8326 80.3602C31.8326 80.6712 31.8326 80.9812 31.8326 81.2149C31.8326 81.525 31.7526 81.7587 31.6716 81.9915C31.5916 82.2242 31.4305 82.3797 31.1894 82.5352C31.0284 82.6907 30.7063 82.768 30.4652 82.8462Z" fill="#384C75"/>
<path d="M45.1588 95.0487C44.9993 94.1903 44.6803 93.2524 44.2019 92.3154C43.7244 91.3784 43.1667 90.519 42.4495 89.8947C41.7323 89.2694 41.0151 88.7227 40.1384 88.4101C39.2617 88.0984 38.386 87.942 37.4291 88.0197C36.4731 88.0197 35.5172 88.3324 34.5613 88.7227C33.6053 89.1917 32.8079 89.7384 32.1709 90.4413C31.533 91.1443 31.0555 91.925 30.8158 92.7843C30.577 93.6437 30.4175 94.502 30.4978 95.44C30.577 96.377 30.8158 97.314 31.2942 98.1733C31.7727 99.1103 32.3304 99.9696 33.0476 100.594C33.7638 101.219 34.481 101.766 35.1982 102L36.4731 99.188C35.9956 99.0326 35.5172 98.7977 35.119 98.486C34.7207 98.0947 34.3225 97.6267 34.0035 97.08C33.7638 96.5333 33.6053 96.0643 33.6053 95.5177C33.6053 94.971 33.6846 94.502 33.8441 94.034C34.0035 93.565 34.3225 93.097 34.7207 92.7057C35.119 92.3154 35.5965 92.0027 36.1551 91.7687C36.7128 91.5347 37.2706 91.3784 37.8283 91.3007C38.386 91.222 38.8635 91.3007 39.4212 91.4561C39.8997 91.6124 40.3781 91.8473 40.7763 92.2377C41.1746 92.628 41.5728 93.097 41.8116 93.6437C41.971 93.9554 42.1305 94.3466 42.2107 94.6584C42.29 94.971 42.3693 95.2837 42.3693 95.5954L40.1384 96.611L39.023 94.3466L36.6326 95.44L39.023 100.36L45.4768 97.3917C45.3975 96.6896 45.3173 95.908 45.1588 95.0487Z" fill="#384C75"/>
</g>
</g>
<defs>
<clipPath id="clip0_1_186">
<rect width="155" height="153" fill="white" transform="matrix(1 0 0 -1 0 153)"/>
</clipPath>
<clipPath id="clip1_1_186">
<rect width="155" height="153" fill="white" transform="matrix(1 0 0 -1 0 153)"/>
</clipPath>
</defs>
</svg>
