<svg width="345" height="26" viewBox="0 0 345 26" fill="none" xmlns="http://www.w3.org/2000/svg">
<g opacity="0.45" clip-path="url(#clip0_1_554)">
<path fill-rule="evenodd" clip-rule="evenodd" d="M214 0C221.18 0 227 5.82 227 13C227 20.18 221.18 26 214 26C206.82 26 201 20.18 201 13C201 5.82 206.82 0 214 0ZM212.71 10.023V11.404H211.562L211.564 13.491L212.94 13.475V18.078H215.007V13.475H216.614L216.844 11.405H215.007V10.254C215.007 9.926 215.083 9.794 215.467 9.794H216.844L216.82 7.82C216.82 7.82 216.258 7.719 215.38 7.719C213.454 7.719 212.71 8.879 212.71 10.023Z" fill="white"/>
</g>
<g opacity="0.45" clip-path="url(#clip1_1_554)">
<path fill-rule="evenodd" clip-rule="evenodd" d="M250 0C257.18 0 263 5.82 263 13C263 20.18 257.18 26 250 26C242.82 26 237 20.18 237 13C237 5.82 242.82 0 250 0ZM252.493 8.531C251.22 8.531 250.189 9.595 250.189 10.906C250.189 11.092 250.209 11.273 250.249 11.447C248.334 11.348 246.637 10.403 245.501 8.966C245.296 9.33035 245.188 9.74172 245.189 10.16C245.189 10.983 245.595 11.71 246.214 12.136C245.847 12.1241 245.488 12.0221 245.17 11.839V11.869C245.17 13.019 245.964 13.979 247.018 14.198C246.679 14.2925 246.323 14.3062 245.978 14.238C246.27 15.181 247.121 15.868 248.129 15.888C247.656 16.2726 247.11 16.5579 246.524 16.7268C245.938 16.8957 245.324 16.9448 244.719 16.871C245.765 17.5666 246.994 17.9378 248.25 17.938C252.487 17.938 254.804 14.319 254.804 11.181C254.804 11.0786 254.802 10.9763 254.798 10.874C255.251 10.5354 255.641 10.119 255.948 9.644C255.529 9.83614 255.082 9.96262 254.624 10.019C255.109 9.71736 255.469 9.25075 255.637 8.705C255.187 8.98081 254.692 9.17575 254.174 9.281C253.962 9.04553 253.702 8.85714 253.413 8.72797C253.123 8.59879 252.81 8.5317 252.493 8.531Z" fill="white"/>
</g>
<g opacity="0.45" clip-path="url(#clip2_1_554)">
<path fill-rule="evenodd" clip-rule="evenodd" d="M286 0C293.18 0 299 5.82 299 13C299 20.18 293.18 26 286 26C278.82 26 273 20.18 273 13C273 5.82 278.82 0 286 0ZM284.125 8.125C283.329 8.125 282.566 8.44107 282.004 9.00368C281.441 9.56629 281.125 10.3294 281.125 11.125V14.875C281.125 15.6706 281.441 16.4337 282.004 16.9963C282.566 17.5589 283.329 17.875 284.125 17.875H287.875C288.671 17.875 289.434 17.5589 289.996 16.9963C290.559 16.4337 290.875 15.6706 290.875 14.875V11.125C290.875 10.3294 290.559 9.56629 289.996 9.00368C289.434 8.44107 288.671 8.125 287.875 8.125H284.125ZM288.228 10.174C288.225 10.0919 288.238 10.0099 288.267 9.93309C288.296 9.85624 288.341 9.78607 288.398 9.72679C288.454 9.66751 288.523 9.62035 288.598 9.58813C288.674 9.55591 288.755 9.53931 288.837 9.53931C288.92 9.53931 289.001 9.55591 289.077 9.58813C289.152 9.62035 289.221 9.66751 289.277 9.72679C289.334 9.78607 289.379 9.85624 289.408 9.93309C289.437 10.0099 289.45 10.0919 289.447 10.174C289.441 10.3314 289.374 10.4802 289.26 10.5893C289.146 10.6984 288.995 10.7593 288.837 10.7593C288.68 10.7593 288.529 10.6984 288.415 10.5893C288.301 10.4802 288.234 10.3314 288.228 10.174ZM286.006 15.438C285.359 15.438 284.739 15.1811 284.282 14.7239C283.825 14.2667 283.568 13.6466 283.568 13C283.568 12.3534 283.825 11.7333 284.282 11.2761C284.739 10.8189 285.359 10.562 286.006 10.562C286.653 10.562 287.273 10.8189 287.73 11.2761C288.187 11.7333 288.444 12.3534 288.444 13C288.444 13.6466 288.187 14.2667 287.73 14.7239C287.273 15.1811 286.653 15.438 286.006 15.438ZM286 14.636C286.431 14.636 286.844 14.4648 287.149 14.16C287.454 13.8553 287.625 13.442 287.625 13.011C287.625 12.58 287.454 12.1667 287.149 11.862C286.844 11.5572 286.431 11.386 286 11.386C285.569 11.386 285.156 11.5572 284.851 11.862C284.546 12.1667 284.375 12.58 284.375 13.011C284.375 13.442 284.546 13.8553 284.851 14.16C285.156 14.4648 285.569 14.636 286 14.636Z" fill="white"/>
</g>
<g opacity="0.45" clip-path="url(#clip3_1_554)">
<path fill-rule="evenodd" clip-rule="evenodd" d="M322 0C329.18 0 335 5.82 335 13C335 20.18 329.18 26 322 26C314.82 26 309 20.18 309 13C309 5.82 314.82 0 322 0ZM327.45 10.206C327.387 9.96187 327.261 9.73861 327.084 9.55856C326.908 9.3785 326.687 9.24796 326.444 9.18C325.557 8.938 322 8.938 322 8.938C322 8.938 318.443 8.938 317.556 9.18C317.313 9.24796 317.092 9.3785 316.916 9.55856C316.739 9.73861 316.613 9.96187 316.55 10.206C316.313 11.111 316.313 13 316.313 13C316.313 13 316.313 14.889 316.55 15.794C316.68 16.294 317.066 16.686 317.556 16.82C318.443 17.062 322 17.062 322 17.062C322 17.062 325.557 17.062 326.444 16.82C326.687 16.752 326.908 16.6215 327.084 16.4414C327.261 16.2614 327.387 16.0381 327.45 15.794C327.688 14.889 327.688 13 327.688 13C327.688 13 327.688 11.111 327.45 10.206ZM320.743 14.888V11.058L324.121 12.973L320.743 14.888Z" fill="white"/>
</g>
<defs>
<clipPath id="clip0_1_554">
<rect width="26" height="26" fill="white" transform="translate(201)"/>
</clipPath>
<clipPath id="clip1_1_554">
<rect width="26" height="26" fill="white" transform="translate(237)"/>
</clipPath>
<clipPath id="clip2_1_554">
<rect width="26" height="26" fill="white" transform="translate(273)"/>
</clipPath>
<clipPath id="clip3_1_554">
<rect width="26" height="26" fill="white" transform="translate(309)"/>
</clipPath>
</defs>
</svg>
