<svg width="300" height="65" viewBox="0 0 300 65" fill="none" xmlns="http://www.w3.org/2000/svg">
<g opacity="0.9" clip-path="url(#clip0_1_371)">
<path fill-rule="evenodd" clip-rule="evenodd" d="M92 3C105.255 3 116 13.7446 116 27C116 40.2554 105.255 51 92 51C78.7446 51 68 40.2554 68 27C68 13.7446 78.7446 3 92 3ZM89.6185 21.504V24.0535H87.4991L87.5028 27.9065L90.0431 27.8769V36.3748H93.8591V27.8769H96.8258L97.2505 24.0554H93.8591V21.9305C93.8591 21.3249 93.9994 21.0812 94.7083 21.0812H97.2505L97.2062 17.4369C97.2062 17.4369 96.1686 17.2505 94.5477 17.2505C90.992 17.2505 89.6185 19.392 89.6185 21.504Z" fill="#3A5792"/>
</g>
<g opacity="0.9" clip-path="url(#clip1_1_371)">
<path fill-rule="evenodd" clip-rule="evenodd" d="M150 3C163.255 3 174 13.7446 174 27C174 40.2554 163.255 51 150 51C136.745 51 126 40.2554 126 27C126 13.7446 136.745 3 150 3ZM154.602 18.7495C152.252 18.7495 150.349 20.7138 150.349 23.1342C150.349 23.4775 150.386 23.8117 150.46 24.1329C146.924 23.9502 143.791 22.2055 141.694 19.5526C141.315 20.2253 141.116 20.9847 141.118 21.7569C141.118 23.2763 141.868 24.6185 143.01 25.4049C142.333 25.3829 141.671 25.1946 141.083 24.8566V24.912C141.083 27.0351 142.549 28.8074 144.495 29.2117C143.869 29.3862 143.212 29.4115 142.575 29.2855C143.114 31.0265 144.685 32.2948 146.546 32.3317C145.672 33.0418 144.665 33.5685 143.583 33.8803C142.501 34.1921 141.368 34.2826 140.25 34.1465C142.182 35.4306 144.45 36.1159 146.769 36.1163C154.591 36.1163 158.869 29.4351 158.869 23.6418C158.869 23.4529 158.866 23.2639 158.858 23.0751C159.695 22.45 160.413 21.6811 160.981 20.8043C160.206 21.159 159.382 21.3925 158.537 21.4966C159.432 20.9397 160.096 20.0783 160.407 19.0708C159.575 19.58 158.661 19.9398 157.706 20.1342C157.314 19.6994 156.835 19.3516 156.301 19.1132C155.766 18.8747 155.188 18.7508 154.602 18.7495Z" fill="#2691D5"/>
</g>
<g opacity="0.9" clip-path="url(#clip2_1_371)">
<path fill-rule="evenodd" clip-rule="evenodd" d="M208 3C221.255 3 232 13.7446 232 27C232 40.2554 221.255 51 208 51C194.745 51 184 40.2554 184 27C184 13.7446 194.745 3 208 3ZM204.538 18C203.07 18 201.661 18.5835 200.622 19.6222C199.584 20.6608 199 22.0696 199 23.5385V30.4615C199 31.9304 199.584 33.3392 200.622 34.3778C201.661 35.4165 203.07 36 204.538 36H211.462C212.93 36 214.339 35.4165 215.378 34.3778C216.416 33.3392 217 31.9304 217 30.4615V23.5385C217 22.0696 216.416 20.6608 215.378 19.6222C214.339 18.5835 212.93 18 211.462 18H204.538ZM212.113 21.7828C212.107 21.6312 212.132 21.4799 212.185 21.338C212.239 21.1961 212.321 21.0666 212.426 20.9572C212.531 20.8477 212.657 20.7606 212.797 20.7012C212.937 20.6417 213.087 20.611 213.238 20.611C213.39 20.611 213.54 20.6417 213.68 20.7012C213.82 20.7606 213.946 20.8477 214.051 20.9572C214.156 21.0666 214.238 21.1961 214.291 21.338C214.345 21.4799 214.37 21.6312 214.364 21.7828C214.352 22.0733 214.228 22.348 214.018 22.5495C213.809 22.7509 213.529 22.8633 213.238 22.8633C212.948 22.8633 212.668 22.7509 212.458 22.5495C212.249 22.348 212.125 22.0733 212.113 21.7828ZM208.011 31.5009C206.817 31.5009 205.673 31.0267 204.828 30.1826C203.984 29.3385 203.51 28.1937 203.51 27C203.51 25.8063 203.984 24.6615 204.828 23.8174C205.673 22.9733 206.817 22.4991 208.011 22.4991C209.205 22.4991 210.35 22.9733 211.194 23.8174C212.038 24.6615 212.512 25.8063 212.512 27C212.512 28.1937 212.038 29.3385 211.194 30.1826C210.35 31.0267 209.205 31.5009 208.011 31.5009ZM208 30.0203C208.796 30.0203 209.559 29.7042 210.121 29.1416C210.684 28.579 211 27.816 211 27.0203C211 26.2247 210.684 25.4616 210.121 24.899C209.559 24.3364 208.796 24.0203 208 24.0203C207.204 24.0203 206.441 24.3364 205.879 24.899C205.316 25.4616 205 26.2247 205 27.0203C205 27.816 205.316 28.579 205.879 29.1416C206.441 29.7042 207.204 30.0203 208 30.0203Z" fill="#D41792"/>
</g>
<g opacity="0.9" clip-path="url(#clip3_1_371)">
<path fill-rule="evenodd" clip-rule="evenodd" d="M266 3C279.255 3 290 13.7446 290 27C290 40.2554 279.255 51 266 51C252.745 51 242 40.2554 242 27C242 13.7446 252.745 3 266 3ZM276.062 21.8418C275.945 21.3911 275.712 20.979 275.386 20.6466C275.06 20.3142 274.653 20.0732 274.204 19.9477C272.567 19.5009 266 19.5009 266 19.5009C266 19.5009 259.433 19.5009 257.796 19.9477C257.347 20.0732 256.94 20.3142 256.614 20.6466C256.288 20.979 256.055 21.3911 255.938 21.8418C255.501 23.5126 255.501 27 255.501 27C255.501 27 255.501 30.4874 255.938 32.1582C256.178 33.0812 256.891 33.8049 257.796 34.0523C259.433 34.4991 266 34.4991 266 34.4991C266 34.4991 272.567 34.4991 274.204 34.0523C274.653 33.9268 275.06 33.6858 275.386 33.3534C275.712 33.021 275.945 32.6089 276.062 32.1582C276.501 30.4874 276.501 27 276.501 27C276.501 27 276.501 23.5126 276.062 21.8418ZM263.679 30.4855V23.4148L269.916 26.9502L263.679 30.4855Z" fill="#EB0C19"/>
</g>
<defs>
<clipPath id="clip0_1_371">
<rect width="48" height="48" fill="white" transform="translate(68 3)"/>
</clipPath>
<clipPath id="clip1_1_371">
<rect width="48" height="48" fill="white" transform="translate(126 3)"/>
</clipPath>
<clipPath id="clip2_1_371">
<rect width="48" height="48" fill="white" transform="translate(184 3)"/>
</clipPath>
<clipPath id="clip3_1_371">
<rect width="48" height="48" fill="white" transform="translate(242 3)"/>
</clipPath>
</defs>
</svg>
