<svg width="62" height="52" viewBox="0 0 62 52" fill="none" xmlns="http://www.w3.org/2000/svg">
<rect x="0.5" y="-0.5" width="61" height="51" rx="5.5" transform="matrix(1 0 0 -1 0 51)" fill="white"/>
<rect x="0.5" y="-0.5" width="61" height="51" rx="5.5" transform="matrix(1 0 0 -1 0 51)" stroke="white"/>
<g clip-path="url(#clip0_1_35)">
<g clip-path="url(#clip1_1_35)">
<path d="M44.5 25.7C44.5 26.81 44.4081 27.62 44.2092 28.46H31.2755V23.45H38.8673C38.7143 22.205 37.8878 20.33 36.051 19.07L36.0252 18.9023L40.1146 15.7977L40.398 15.77C42.9999 18.125 44.5 21.59 44.5 25.7Z" fill="#4285F4"/>
<path d="M31.2755 12.5C34.9949 12.5 38.1173 13.7 40.398 15.77L36.051 19.07C34.8878 18.275 33.3265 17.72 31.2755 17.72C27.6327 17.72 24.5409 20.075 23.4387 23.33L23.2772 23.3165L19.025 20.0915L18.9694 19.94C21.2346 15.53 25.8877 12.5 31.2755 12.5Z" fill="#34A853"/>
<path d="M23.4387 23.33C23.1479 24.17 22.9796 25.0701 22.9796 26C22.9796 26.9301 23.1479 27.83 23.4234 28.67L23.4157 28.8489L19.1102 32.1257L18.9694 32.0601C18.0357 30.23 17.5 28.175 17.5 26C17.5 23.825 18.0357 21.7701 18.9694 19.9401L23.4387 23.33Z" fill="#FBBC05"/>
<path d="M31.2755 34.28C33.8622 34.28 35.6071 33.185 36.602 32.27L40.4898 35.99C38.1021 38.165 34.9949 39.5 31.2755 39.5C25.8877 39.5 21.2346 36.47 18.9694 32.0601L23.4234 28.67C24.5409 31.925 27.6327 34.28 31.2755 34.28Z" fill="#EB4335"/>
</g>
</g>
<defs>
<clipPath id="clip0_1_35">
<rect width="32" height="32" fill="white" transform="matrix(1 0 0 -1 15 42)"/>
</clipPath>
<clipPath id="clip1_1_35">
<rect width="32" height="32" fill="white" transform="matrix(1 0 0 -1 15 42)"/>
</clipPath>
</defs>
</svg>
