<svg width="62" height="52" viewBox="0 0 62 52" fill="none" xmlns="http://www.w3.org/2000/svg">
<rect x="0.5" y="-0.5" width="61" height="51" rx="5.5" transform="matrix(1 0 0 -1 0 51)" fill="white"/>
<rect x="0.5" y="-0.5" width="61" height="51" rx="5.5" transform="matrix(1 0 0 -1 0 51)" stroke="white"/>
<g clip-path="url(#clip0_1_29)">
<g clip-path="url(#clip1_1_29)">
<path d="M31.3516 35.0769C32.6653 35.0769 34.3121 35.9924 35.2928 37.213C36.1809 38.3191 36.8285 39.864 36.8285 41.4088C36.8285 41.6186 36.81 41.8284 36.773 42C35.3113 41.9428 33.5535 40.9892 32.4988 39.7114C31.6661 38.7387 30.9075 37.213 30.9075 35.6491C30.9075 35.4202 30.9445 35.1914 30.963 35.1151C31.0555 35.096 31.2035 35.0769 31.3516 35.0769ZM26.7257 12C28.5206 12 29.3162 13.2397 31.5551 13.2397C33.831 13.2397 34.3306 12.0381 36.329 12.0381C38.2903 12.0381 39.604 13.9072 40.8438 15.7381C42.2315 17.836 42.8051 19.8957 42.8421 19.9911C42.7126 20.0292 38.9564 21.6122 38.9564 26.0559C38.9564 29.9085 41.9169 31.644 42.0835 31.7775C40.1221 34.6764 37.1431 34.7527 36.329 34.7527C34.1271 34.7527 32.3322 33.3795 31.2035 33.3795C29.9823 33.3795 28.3725 34.6764 26.4667 34.6764C22.8401 34.6764 19.1579 31.5868 19.1579 25.7508C19.1579 22.1271 20.5271 18.2937 22.2109 15.8144C23.6542 13.7165 24.9124 12 26.7257 12Z" fill="black"/>
</g>
</g>
<defs>
<clipPath id="clip0_1_29">
<rect width="32" height="32" fill="white" transform="matrix(1 0 0 -1 15 42)"/>
</clipPath>
<clipPath id="clip1_1_29">
<rect width="32" height="32" fill="white" transform="matrix(1 0 0 -1 15 42)"/>
</clipPath>
</defs>
</svg>
