<svg width="58" height="58" viewBox="0 0 58 58" fill="none" xmlns="http://www.w3.org/2000/svg">
<g clip-path="url(#clip0_1_150)">
<g clip-path="url(#clip1_1_150)">
<path d="M29 0C45.0163 0 58 12.9837 58 29C58 45.0163 45.0163 58 29 58C12.9837 58 0 45.0163 0 29C0 12.9837 12.9837 0 29 0Z" fill="#DF96AE"/>
<path fill-rule="evenodd" clip-rule="evenodd" d="M25.93 45.2248C26.2292 45.3887 27.354 45.7872 27.6854 45.1549C28.0171 44.5225 27.0743 43.7848 26.7531 43.6085C26.4324 43.4332 25.9085 43.4475 25.6097 44.0176C25.3106 44.5877 25.6307 45.06 25.93 45.2248ZM29.2916 39.0057C29.5909 39.1696 30.7155 39.5691 31.0472 38.9367C31.3786 38.3044 30.4359 37.5666 30.1148 37.3904C29.7939 37.215 29.2701 37.2294 28.9711 37.7995C28.6722 38.3695 28.9921 38.8419 29.2916 39.0057ZM29.0485 14.5001C27.0931 14.4935 25.1924 14.8777 23.3997 15.6413C21.6695 16.3809 20.1161 17.4377 18.7821 18.7868C17.4464 20.1367 16.3958 21.7119 15.66 23.4671C14.8973 25.2846 14.5068 27.2172 14.5001 29.2081C14.4938 31.1991 14.8717 33.1335 15.6223 34.9577C16.3478 36.7178 17.387 38.3006 18.7139 39.6582C20.0394 41.0158 21.586 42.0851 23.3107 42.8353C23.7575 43.0279 24.2287 43.1285 24.7113 43.1304C26.1603 43.1352 27.4657 42.2614 28.0355 40.9037C28.8152 39.046 27.9629 36.8883 26.1381 36.095C25.2714 35.7185 24.4918 35.18 23.8221 34.494C23.1522 33.8061 22.628 33.0099 22.2637 32.1255C21.887 31.2096 21.699 30.2371 21.7022 29.233C21.7055 28.228 21.8998 27.2564 22.2828 26.3443C22.6525 25.4609 23.182 24.6686 23.8564 23.9874C24.5293 23.3052 25.3124 22.7715 26.1828 22.4007C27.0817 22.0175 28.0377 21.8268 29.0244 21.8297C30.0116 21.8335 30.9665 22.0309 31.8635 22.4199C32.7306 22.7974 33.5096 23.3359 34.1788 24.0219C34.8472 24.7079 35.3722 25.5041 35.7369 26.3903C36.1139 27.3063 36.3032 28.2787 36.2997 29.2828C36.2931 31.3035 37.9025 32.9524 39.8878 32.9591C41.8727 32.9658 43.4932 31.3274 43.4999 29.3068C43.5064 27.3158 43.1292 25.3814 42.3773 23.5581C41.654 21.7981 40.6138 20.2162 39.2875 18.8567C37.9618 17.4991 36.4143 16.4317 34.6901 15.6806C32.9023 14.9045 31.0039 14.5069 29.0485 14.5001ZM29.4996 41.7756C29.8337 41.9586 31.2092 42.4702 31.5793 41.7651C31.9493 41.059 30.7768 40.1698 30.4186 39.9734C30.0602 39.777 29.4761 39.7933 29.1423 40.4295C28.8087 41.0657 29.1658 41.5926 29.4996 41.7756ZM28.2156 44.1038C28.5495 44.2868 29.8923 44.7803 30.2622 44.0751C30.6322 43.3699 29.4924 42.498 29.1343 42.3016C28.7762 42.1052 28.1918 42.1215 27.858 42.7577C27.5245 43.3939 27.8817 43.9208 28.2156 44.1038Z" fill="#844461"/>
</g>
</g>
<defs>
<clipPath id="clip0_1_150">
<rect width="58" height="58" fill="white" transform="matrix(1 0 0 -1 0 58)"/>
</clipPath>
<clipPath id="clip1_1_150">
<rect width="58" height="58" fill="white" transform="matrix(1 0 0 -1 0 58)"/>
</clipPath>
</defs>
</svg>
