<svg width="230" height="128" viewBox="0 0 230 128" fill="none" xmlns="http://www.w3.org/2000/svg">
<g clip-path="url(#clip0_1_132)">
<g clip-path="url(#clip1_1_132)">
<path d="M32.9259 127.608L212.456 98.2724C223.356 96.489 230.749 86.2093 228.971 75.3085L219.518 17.4142C217.759 6.62727 207.675 -0.725708 196.902 0.845093L196.558 0.898262C196.558 0.898384 196.557 0.898506 196.556 0.900909L17.0266 30.2368C6.12673 32.0202 -1.26621 42.2999 0.511386 53.2007L9.96467 111.095C11.7237 121.882 21.8072 129.235 32.58 127.664L32.924 127.611C32.9248 127.611 32.9255 127.611 32.9259 127.608Z" fill="#DF96AE"/>
<path d="M73.9221 75.3667L76.0573 88.1843L75.9804 88.1964L69.2344 76.1092L66.1604 76.5961L63.6078 90.1561L63.5309 90.1682L61.6007 77.3182L57.4765 77.9715L60.349 96.1078L66.5738 95.1219L68.856 82.8389L68.9585 82.8226L74.7454 93.8276L81.0726 92.8255L78.2001 74.6892L73.9221 75.3667Z" fill="#844461"/>
<path d="M94.8763 72.048L94.0313 75.8318L87.0125 76.9435L85.1165 73.5938L80.3519 74.3484L90.8324 91.2797L95.0847 90.6062L99.7434 71.2771L94.8763 72.048ZM92.1149 86.1137L88.8235 80.2541L93.3832 79.5319L92.1149 86.1137Z" fill="#844461"/>
<path d="M113.423 69.1104L108 82.1271L107.924 82.1392L106.147 70.2627L101.895 70.9362L104.768 89.0725L109.763 88.2814L115.163 75.2944L115.24 75.2822L117.012 87.1332L121.265 86.4597L118.392 68.3233L113.423 69.1104Z" fill="#844461"/>
<path d="M135.068 65.6821L134.223 69.4659L127.205 70.5776L125.308 67.2279L120.544 67.9826L131.024 84.9139L135.277 84.2404L139.935 64.9112L135.068 65.6821ZM132.307 79.7478L129.016 73.8882L133.575 73.166L132.307 79.7478Z" fill="#844461"/>
<path d="M157.913 63.193C156.952 62.8725 155.855 62.6611 154.622 62.5588C153.389 62.4565 152.073 62.5162 150.672 62.738C149.221 62.9679 147.921 63.4101 146.773 64.0646C145.625 64.7191 144.678 65.5344 143.931 66.5105C143.184 67.4866 142.655 68.5987 142.345 69.847C142.035 71.0952 141.994 72.4366 142.221 73.8711C142.451 75.3227 142.911 76.5978 143.602 77.6963C144.292 78.7949 145.147 79.688 146.166 80.3756C147.185 81.0632 148.328 81.5344 149.593 81.789C150.859 82.0437 152.184 82.0615 153.567 81.8424C155.002 81.6152 156.299 81.1865 157.46 80.5563C158.62 79.9261 159.527 79.1829 160.179 78.3269L156.913 75.6142C156.565 76.1771 156.065 76.672 155.415 77.0988C154.765 77.5256 153.996 77.8094 153.108 77.95C152.34 78.0717 151.609 78.0431 150.915 77.8641C150.221 77.6851 149.596 77.3816 149.038 76.9535C148.48 76.5255 148.014 75.9866 147.639 75.3369C147.265 74.6872 147.013 73.9524 146.883 73.1327C146.751 72.2959 146.749 71.5085 146.877 70.7704C147.005 70.0324 147.264 69.3743 147.654 68.7961C148.044 68.218 148.562 67.7332 149.209 67.3419C149.856 66.9506 150.624 66.6846 151.512 66.5439C152.024 66.4628 152.517 66.4241 152.99 66.4279C153.463 66.4318 153.91 66.4879 154.33 66.5965L154.853 69.901L151.395 70.4487L151.955 73.9838L159.435 72.7991L157.913 63.193Z" fill="#844461"/>
<path d="M161.965 61.422L164.838 79.5583L177.031 77.6271L176.443 73.9128L168.476 75.1745L167.937 71.7676L175.468 70.5748L174.912 67.0653L167.381 68.2581L166.784 64.4926L175.212 63.1577L174.62 59.4177L161.965 61.422Z" fill="#844461"/>
<path d="M50.7685 60.6527L49.5513 52.9679L45.1709 53.6616L46.3881 61.3465L41.2295 72.8772L46.5321 72.0374L49.3371 64.7132L54.2682 70.8121L59.3914 70.0006L50.7685 60.6527Z" fill="#844461"/>
<path d="M78.0505 57.8284C77.8233 56.3939 77.3681 55.1224 76.6849 54.014C76.0016 52.9055 75.1533 51.9983 74.1399 51.2922C73.1265 50.5862 71.9771 50.0987 70.6916 49.8296C69.406 49.5606 68.0545 49.5383 66.6371 49.7628C65.2197 49.9873 63.9455 50.4254 62.8145 51.0772C61.6836 51.729 60.7453 52.5472 59.9997 53.5318C59.2541 54.5165 58.7277 55.6415 58.4204 56.9068C58.1132 58.1721 58.0731 59.522 58.3003 60.9565C58.5303 62.4081 58.9855 63.6796 59.666 64.771C60.3465 65.8624 61.1915 66.7483 62.2008 67.4287C63.2101 68.1091 64.3519 68.576 65.6262 68.8293C66.9005 69.0826 68.2464 69.097 69.6638 68.8725C71.0812 68.648 72.361 68.2178 73.5032 67.5817C74.6454 66.9456 75.5913 66.1481 76.341 65.1891C77.0906 64.2301 77.6204 63.1264 77.9304 61.8782C78.2404 60.6299 78.2804 59.28 78.0505 57.8284ZM73.3627 58.5709C73.4871 59.3565 73.4754 60.1111 73.3274 60.8348C73.1794 61.5584 72.9177 62.1995 72.5422 62.7578C72.1668 63.3162 71.6812 63.787 71.0854 64.1702C70.4896 64.5535 69.8075 64.8059 69.039 64.9276C68.2705 65.0493 67.548 65.0194 66.8715 64.8377C66.195 64.656 65.5877 64.3583 65.0495 63.9446C64.5113 63.5309 64.0643 63.0021 63.7085 62.3582C63.3527 61.7144 63.1125 60.9996 62.9881 60.2141C62.8583 59.3943 62.8667 58.6184 63.0133 57.8862C63.1599 57.154 63.4203 56.5044 63.7944 55.9375C64.1685 55.3705 64.6492 54.8961 65.2364 54.5143C65.8237 54.1324 66.5015 53.8806 67.27 53.7589C68.0385 53.6372 68.761 53.6672 69.4375 53.8489C70.114 54.0306 70.722 54.3326 71.2616 54.7548C71.8011 55.177 72.2537 55.7136 72.6194 56.3647C72.9851 57.0158 73.2329 57.7512 73.3627 58.5709Z" fill="#844461"/>
<path d="M96.5902 52.5287C96.4171 51.4357 96.0759 50.47 95.5668 49.6316C95.0576 48.7932 94.4107 48.1079 93.6262 47.5757C92.8417 47.0435 91.9386 46.6744 90.9169 46.4686C89.8952 46.2628 88.7952 46.2532 87.6168 46.4399C86.4214 46.6292 85.3739 46.9789 84.4744 47.489C83.5748 47.9991 82.8428 48.6271 82.2782 49.373C81.7136 50.1189 81.323 50.9686 81.1064 51.9219C80.8897 52.8753 80.868 53.8985 81.0411 54.9914L82.8303 66.2882L87.1851 65.5985L85.4527 54.6603C85.3742 54.1651 85.3639 53.6853 85.4216 53.221C85.4794 52.7567 85.6129 52.3285 85.8221 51.9365C86.0314 51.5445 86.3375 51.2116 86.7406 50.9376C87.1436 50.6637 87.6525 50.4781 88.2673 50.3807C88.8821 50.2834 89.4234 50.3027 89.8914 50.4386C90.3593 50.5746 90.7576 50.7959 91.0863 51.1028C91.415 51.4096 91.6743 51.7755 91.8641 52.2006C92.054 52.6257 92.1882 53.0859 92.2666 53.5811L93.999 64.5193L98.3794 63.8255L96.5902 52.5287Z" fill="#844461"/>
<path d="M109.391 43.4902L106.612 51.3091L105.126 51.5444L103.986 44.3462L99.6823 45.0279L102.555 63.1642L109.471 62.0687C110.342 61.9308 111.178 61.7066 111.977 61.3961C112.777 61.0856 113.472 60.6648 114.062 60.1337C114.652 59.6026 115.088 58.9559 115.37 58.1935C115.652 57.4311 115.71 56.5291 115.545 55.4873C115.35 54.2578 114.854 53.2773 114.055 52.546C113.256 51.8147 112.24 51.363 111.004 51.191L114.514 42.6787L109.391 43.4902ZM111.204 56.0962C111.271 56.5231 111.236 56.8831 111.099 57.1762C110.962 57.4693 110.764 57.7108 110.505 57.9006C110.246 58.0903 109.946 58.2386 109.604 58.3453C109.262 58.452 108.928 58.531 108.604 58.5824L106.273 58.9516L105.603 54.7249L107.678 54.3963C108.037 54.3395 108.409 54.3112 108.794 54.3115C109.179 54.3117 109.538 54.3644 109.869 54.4694C110.201 54.5744 110.488 54.7565 110.731 55.0157C110.973 55.2749 111.131 55.6351 111.204 56.0962Z" fill="#844461"/>
<path d="M140.797 38.516L142.932 51.3335L142.855 51.3457L136.109 39.2585L133.035 39.7453L130.482 53.3053L130.405 53.3175L128.475 40.4675L124.351 41.1207L127.223 59.2571L133.448 58.2712L135.73 45.9882L135.833 45.9719L141.62 56.9769L147.947 55.9748L145.074 37.8384L140.797 38.516Z" fill="#844461"/>
<path d="M161.751 35.1971L160.906 38.9809L153.887 40.0926L151.991 36.7429L147.226 37.4976L157.707 54.4289L161.959 53.7554L166.618 34.4263L161.751 35.1971ZM158.989 49.2629L155.698 43.4033L160.257 42.6811L158.989 49.2629Z" fill="#844461"/>
<path d="M184.665 34.1412C183.716 33.3462 182.61 32.773 181.347 32.4217C180.083 32.0704 178.683 32.0164 177.146 32.2598C175.745 32.4816 174.488 32.9171 173.374 33.5662C172.261 34.2152 171.335 35.0314 170.598 36.0147C169.861 36.998 169.338 38.118 169.029 39.3748C168.721 40.6316 168.679 41.9687 168.903 43.3861C169.133 44.8377 169.593 46.1128 170.284 47.2114C170.974 48.3099 171.829 49.203 172.848 49.8906C173.867 50.5782 175.01 51.0494 176.276 51.304C177.541 51.5587 178.866 51.5765 180.249 51.3574C181.53 51.1546 182.754 50.7288 183.92 50.0802C185.087 49.4315 185.985 48.6108 186.616 47.6182L183.174 45.1173C182.853 45.7458 182.381 46.2494 181.758 46.6281C181.136 47.0069 180.474 47.2517 179.774 47.3626C179.006 47.4843 178.279 47.455 177.594 47.2746C176.909 47.0943 176.296 46.793 175.757 46.3708C175.217 45.9486 174.766 45.4204 174.403 44.7865C174.04 44.1525 173.795 43.4341 173.668 42.6315C173.538 41.8118 173.547 41.0401 173.695 40.3164C173.843 39.5927 174.105 38.9517 174.48 38.3933C174.856 37.8349 175.338 37.3691 175.926 36.9958C176.515 36.6224 177.185 36.3763 177.936 36.2573C178.807 36.1193 179.594 36.1697 180.297 36.4085C181 36.6473 181.592 37.0088 182.071 37.4931L184.665 34.1412Z" fill="#844461"/>
</g>
</g>
<defs>
<clipPath id="clip0_1_132">
<rect width="230" height="128" fill="white" transform="matrix(1 0 0 -1 0 128)"/>
</clipPath>
<clipPath id="clip1_1_132">
<rect width="230" height="128" fill="white" transform="matrix(1 0 0 -1 0 128)"/>
</clipPath>
</defs>
</svg>
