<svg width="142" height="142" viewBox="0 0 142 142" fill="none" xmlns="http://www.w3.org/2000/svg">
<g clip-path="url(#clip0_1_97)">
<g clip-path="url(#clip1_1_97)">
<path d="M71.2098 0.504769C110.135 0.504769 141.69 32.0737 141.69 71.0159C141.69 109.958 110.135 141.527 71.2098 141.527C32.2846 141.527 0.729578 109.958 0.729578 71.0159C0.729578 32.0737 32.2846 0.504769 71.2098 0.504769Z" fill="#DBEAE5"/>
<path d="M82.638 119.118C83.4254 120.326 85.0425 120.666 86.2511 119.879C87.4593 119.091 87.8004 117.474 87.0137 116.266C86.2262 115.059 84.6087 114.718 83.4005 115.505C82.1924 116.293 81.8505 117.91 82.638 119.118Z" fill="#384C75"/>
<path d="M42.737 31.9541C43.5244 33.1617 45.1416 33.5021 46.3502 32.7151C47.5583 31.9273 47.8994 30.3104 47.1127 29.1024C46.3253 27.8948 44.7077 27.5537 43.4995 28.3414C42.2914 29.1291 41.9495 30.7465 42.737 31.9541Z" fill="#384C75"/>
<path d="M24.5169 94.6738C25.3044 95.8814 26.9215 96.2217 28.1301 95.4348C29.3382 94.647 29.6793 93.0301 28.8926 91.8221C28.1052 90.6145 26.4876 90.2734 25.2795 91.0611C24.0713 91.8488 23.7295 93.4662 24.5169 94.6738Z" fill="#384C75"/>
<path d="M58.5504 116.505C58.4343 117.327 58.4888 118.041 58.7139 118.648C58.939 119.255 59.2856 119.767 59.7535 120.186C60.2214 120.604 60.7819 120.941 61.4351 121.197C62.0882 121.452 62.779 121.632 63.5076 121.736L65.1965 121.978L64.4467 127.286L67.8444 127.772L69.8327 113.695L64.6665 112.957C63.8982 112.847 63.1689 112.821 62.4784 112.878C61.7879 112.934 61.1704 113.096 60.6259 113.363C60.0814 113.63 59.6279 114.019 59.2655 114.528C58.903 115.037 58.6646 115.696 58.5504 116.505ZM61.9453 117.01C61.9921 116.679 62.0967 116.417 62.2592 116.223C62.4216 116.03 62.6238 115.89 62.8659 115.803C63.1079 115.716 63.3741 115.673 63.6645 115.674C63.955 115.675 64.2525 115.697 64.5572 115.74L66.0474 115.953L65.5784 119.274L64.1478 119.069C63.8299 119.024 63.5289 118.954 63.245 118.859C62.9611 118.764 62.7126 118.634 62.4995 118.469C62.2864 118.303 62.1291 118.101 62.0275 117.864C61.9259 117.626 61.8985 117.342 61.9453 117.01Z" fill="#384C75"/>
<path d="M43.0227 111.879C42.4743 112.996 42.2082 114.062 42.2245 115.077C42.2407 116.092 42.4599 117.028 42.8818 117.885C43.3038 118.741 43.8806 119.503 44.6124 120.169C45.3441 120.836 46.1483 121.385 47.0249 121.817L51.7802 124.161L58.0426 111.406L53.4314 109.134C52.5307 108.69 51.5905 108.357 50.6107 108.135C49.6309 107.913 48.6793 107.877 47.756 108.026C46.8327 108.175 45.9604 108.554 45.1391 109.164C44.3179 109.773 43.6124 110.678 43.0227 111.879ZM46.229 113.46C46.5828 112.739 46.9932 112.199 47.4603 111.84C47.9274 111.481 48.4254 111.257 48.9542 111.167C49.4831 111.077 50.0262 111.095 50.5835 111.22C51.1408 111.346 51.6836 111.539 52.212 111.799L53.7431 112.554L50.0812 120.012L48.6222 119.293C48.0698 119.021 47.5694 118.696 47.1209 118.318C46.6725 117.941 46.3239 117.511 46.0751 117.031C45.8264 116.55 45.7028 116.012 45.7045 115.416C45.7062 114.82 45.8811 114.168 46.229 113.46Z" fill="#384C75"/>
<path d="M40.7083 103.933L38.6772 106.043L34.7146 102.222L32.753 104.26L36.7156 108.081L32.8898 112.056L35.3339 114.413L45.1836 104.179L38.4442 97.6811L36.4131 99.7914L40.7083 103.933Z" fill="#384C75"/>
<path d="M16.0447 72.0431L16.147 75.4761L30.5087 80.4525L30.3938 76.598L20.2263 73.5919L20.224 73.5116L30.1957 69.953L30.0826 66.1587L16.0447 72.0431Z" fill="#384C75"/>
<path d="M28.7852 53.7728C27.9809 53.5686 27.2655 53.5458 26.6389 53.7044C26.0124 53.863 25.4667 54.1525 25.0018 54.573C24.537 54.9936 24.1433 55.515 23.8208 56.1374C23.4982 56.7597 23.247 57.4278 23.0671 58.1416L22.65 59.7963L17.4547 58.4776L16.6155 61.8064L30.3918 65.3032L31.6677 60.2418C31.8574 59.4891 31.9603 58.7661 31.9764 58.0729C31.9924 57.3796 31.8964 56.7477 31.6883 56.177C31.4802 55.6064 31.1421 55.1132 30.6741 54.6976C30.2061 54.2819 29.5765 53.9736 28.7852 53.7728ZM27.9266 57.0967C28.2509 57.179 28.5004 57.3114 28.6753 57.4939C28.8501 57.6763 28.9681 57.8927 29.0292 58.1429C29.0904 58.3932 29.1052 58.6628 29.0738 58.9517C29.0424 59.2406 28.989 59.5343 28.9138 59.8328L28.5457 61.2928L25.2963 60.468L25.6496 59.0664C25.7281 58.7549 25.8293 58.463 25.9532 58.1906C26.077 57.9183 26.2324 57.685 26.4194 57.4908C26.6064 57.2967 26.8232 57.1618 27.07 57.0864C27.3167 57.0109 27.6023 57.0144 27.9266 57.0967Z" fill="#384C75"/>
<path d="M26.6952 38.5595L31.5175 48.3611L31.4854 48.412L23.6621 43.3841L21.8893 46.2041L33.9177 53.7887L36.0002 50.4761L31.1843 40.7022L31.2163 40.6512L39.0226 45.6685L40.7955 42.8485L28.7671 35.2638L26.6952 38.5595Z" fill="#384C75"/>
<path d="M65.2174 16.3433L64.6331 19.2872L59.2242 20.2686L57.6963 17.7079L54.0246 18.3742L62.4412 31.3017L65.7181 30.7071L68.9681 15.6628L65.2174 16.3433ZM63.3387 27.2802L60.6856 22.8004L64.1994 22.1629L63.3387 27.2802Z" fill="#384C75"/>
<path d="M86.0453 24.5577C86.2038 23.3228 86.1116 22.2276 85.7689 21.2718C85.4261 20.3161 84.917 19.5007 84.2414 18.8257C83.5658 18.1507 82.7745 17.6159 81.8673 17.2212C80.9601 16.8266 80.0222 16.5663 79.0535 16.4404L73.7989 15.7575L71.989 29.8584L77.0844 30.5206C78.0796 30.6499 79.0764 30.6614 80.0749 30.5549C81.0733 30.4484 81.9853 30.1755 82.8106 29.736C83.636 29.2966 84.3388 28.6556 84.9191 27.8131C85.4995 26.9706 85.8748 25.8854 86.0453 24.5577ZM82.5024 24.0972C82.4001 24.8939 82.186 25.5376 81.8599 26.0285C81.5338 26.5193 81.1351 26.8927 80.6638 27.1487C80.1925 27.4047 79.673 27.5632 79.1053 27.6245C78.5376 27.6857 77.9618 27.6783 77.378 27.6024L75.6862 27.3826L76.7445 19.1372L78.3567 19.3467C78.9671 19.426 79.5453 19.572 80.0914 19.7847C80.6374 19.9975 81.1056 20.2912 81.496 20.6659C81.8863 21.0406 82.1768 21.5103 82.3673 22.075C82.5579 22.6398 82.6029 23.3138 82.5024 24.0972Z" fill="#384C75"/>
<path d="M107.068 33.2448C107.51 32.6072 107.755 31.9834 107.803 31.3734C107.851 30.7633 107.758 30.1812 107.523 29.6269C107.288 29.0726 106.944 28.5524 106.491 28.0663C106.037 27.5802 105.53 27.1422 104.97 26.7524L100.319 23.5193L92.2249 35.194L96.8758 38.4271C97.3266 38.7405 97.8208 39.0148 98.3583 39.25C98.8959 39.4852 99.4352 39.6239 99.9763 39.6661C100.517 39.7082 101.042 39.621 101.551 39.4044C102.059 39.1878 102.52 38.7827 102.931 38.189C103.381 37.5404 103.576 36.8822 103.518 36.2144C103.46 35.5466 103.209 34.9205 102.767 34.3362L102.79 34.3032C103.158 34.4775 103.539 34.5918 103.933 34.6459C104.328 34.7 104.712 34.6862 105.086 34.6044C105.461 34.5226 105.818 34.3717 106.158 34.1518C106.498 33.9319 106.801 33.6296 107.068 33.2448ZM100.473 35.9181C100.198 36.3138 99.8472 36.4973 99.4191 36.4685C98.9909 36.4397 98.48 36.2189 97.8863 35.8062L96.5009 34.8431L98.17 32.4356L99.6873 33.4904C100.215 33.8573 100.55 34.2492 100.693 34.6661C100.836 35.083 100.762 35.5003 100.473 35.9181ZM104.065 31.5481C103.729 32.0318 103.315 32.241 102.823 32.1757C102.331 32.1103 101.782 31.8675 101.177 31.4471L99.6104 30.3579L101.462 27.6866L103.046 28.7872C103.266 28.9401 103.48 29.1179 103.69 29.3207C103.9 29.5235 104.067 29.7413 104.19 29.974C104.314 30.2067 104.374 30.4557 104.369 30.7212C104.364 30.9867 104.263 31.2623 104.065 31.5481Z" fill="#384C75"/>
<path d="M113.461 34.2667L102.409 43.1867L104.578 45.8769L113.304 38.8341L116.76 43.1196L119.085 41.2423L113.461 34.2667Z" fill="#384C75"/>
<path d="M120.041 61.8861C121.085 61.4709 121.967 60.9112 122.687 60.2068C123.407 59.5025 123.947 58.7076 124.307 57.8221C124.667 56.9366 124.838 55.9854 124.822 54.9685C124.806 53.9515 124.592 52.9266 124.18 51.8938C123.769 50.861 123.221 49.9727 122.536 49.2288C121.851 48.485 121.074 47.915 120.203 47.5187C119.333 47.1225 118.394 46.9157 117.387 46.8983C116.379 46.881 115.354 47.0798 114.31 47.495C113.254 47.9151 112.372 48.4748 111.664 49.1742C110.957 49.8736 110.433 50.6623 110.091 51.5404C109.75 52.4185 109.593 53.3604 109.619 54.3662C109.645 55.372 109.864 56.3912 110.275 57.4241C110.687 58.4569 111.23 59.3508 111.905 60.1058C112.58 60.8608 113.343 61.4401 114.195 61.8438C115.046 62.2474 115.97 62.4604 116.965 62.4827C117.959 62.505 118.985 62.3061 120.041 61.8861ZM118.681 58.4703C118.109 58.6976 117.538 58.8168 116.966 58.8278C116.395 58.8389 115.867 58.7499 115.381 58.561C114.896 58.3721 114.457 58.0851 114.067 57.7C113.676 57.3149 113.369 56.8424 113.146 56.2824C112.923 55.7225 112.822 55.1715 112.844 54.6296C112.865 54.0876 112.986 53.5782 113.207 53.1014C113.427 52.6245 113.75 52.1971 114.175 51.8189C114.6 51.4408 115.099 51.1381 115.67 50.9108C116.267 50.6735 116.854 50.5482 117.431 50.5347C118.009 50.5212 118.544 50.6076 119.035 50.7941C119.527 50.9805 119.967 51.2632 120.356 51.642C120.744 52.0209 121.05 52.4903 121.273 53.0503C121.496 53.6102 121.596 54.1612 121.575 54.7032C121.553 55.2451 121.429 55.7558 121.202 56.2351C120.976 56.7144 120.648 57.1474 120.219 57.5342C119.79 57.921 119.277 58.2331 118.681 58.4703Z" fill="#384C75"/>
<path d="M125.831 77.6859C126.535 77.0372 127.084 76.2453 127.479 75.3103C127.874 74.3752 128.054 73.3054 128.019 72.1009C127.988 71.0034 127.778 69.9944 127.391 69.0741C127.003 68.1538 126.468 67.3613 125.787 66.6968C125.105 66.0323 124.298 65.5186 123.364 65.1556C122.43 64.7927 121.408 64.6264 120.298 64.6567C119.161 64.6877 118.137 64.9133 117.226 65.3333C116.315 65.7533 115.544 66.3202 114.916 67.0339C114.287 67.7476 113.813 68.5776 113.492 69.524C113.171 70.4704 113.026 71.4856 113.057 72.5697C113.086 73.5735 113.291 74.5558 113.674 75.5165C114.056 76.4771 114.597 77.2493 115.296 77.833L117.556 75.4406C117.105 75.1314 116.766 74.7188 116.537 74.2026C116.308 73.6865 116.185 73.154 116.17 72.6053C116.152 72.003 116.247 71.4479 116.453 70.94C116.659 70.432 116.951 69.9921 117.329 69.6201C117.706 69.2481 118.156 68.9546 118.679 68.7394C119.201 68.5242 119.777 68.408 120.405 68.3909C121.047 68.3733 121.638 68.4576 122.179 68.6438C122.72 68.83 123.186 69.0952 123.577 69.4394C123.968 69.7837 124.278 70.2005 124.506 70.6899C124.734 71.1793 124.857 71.7184 124.874 72.3073C124.893 72.9899 124.777 73.5892 124.524 74.1051C124.271 74.621 123.935 75.0387 123.516 75.3582L125.831 77.6859Z" fill="#384C75"/>
<path d="M124.349 91.0325L119.551 84.1187L119.562 84.0801L125.841 85.9263L126.787 82.6892L113.151 78.6797L112.205 81.9168L117.752 83.5478L117.735 83.6056L110.763 86.8496L109.558 90.9731L117.554 86.9423L123.093 95.3295L124.349 91.0325Z" fill="#384C75"/>
<path d="M120.646 99.4713L108.731 91.7092L103.528 99.7191L105.968 101.309L109.367 96.0754L111.605 97.5335L108.392 102.481L110.698 103.983L113.911 99.0355L116.385 100.647L112.789 106.183L115.246 107.784L120.646 99.4713Z" fill="#384C75"/>
<path d="M105.157 116.849L103.898 110.546L104.792 109.8L108.407 114.137L110.994 111.977L101.885 101.052L97.7273 104.522C97.2037 104.959 96.7379 105.44 96.33 105.963C95.9221 106.487 95.6277 107.042 95.4469 107.629C95.266 108.216 95.2333 108.819 95.3488 109.438C95.4643 110.057 95.7837 110.68 96.3069 111.308C96.9244 112.049 97.6435 112.504 98.4642 112.674C99.2849 112.844 100.14 112.741 101.028 112.366L102.077 119.42L105.157 116.849ZM98.9482 109.182C98.7338 108.925 98.614 108.671 98.5888 108.422C98.5637 108.173 98.5994 107.933 98.6959 107.705C98.7924 107.476 98.933 107.258 99.1178 107.052C99.3025 106.845 99.4924 106.66 99.6875 106.498L101.089 105.328L103.212 107.874L101.964 108.915C101.749 109.095 101.513 109.261 101.257 109.414C101.001 109.566 100.742 109.674 100.48 109.735C100.218 109.797 99.9552 109.79 99.6914 109.713C99.4275 109.637 99.1798 109.46 98.9482 109.182Z" fill="#384C75"/>
</g>
</g>
<defs>
<clipPath id="clip0_1_97">
<rect width="141.71" height="141.71" fill="white" transform="matrix(1.00205 0 0 -1.00205 0 142)"/>
</clipPath>
<clipPath id="clip1_1_97">
<rect width="141.71" height="141.71" fill="white" transform="matrix(1.00205 0 0 -1.00205 0 142)"/>
</clipPath>
</defs>
</svg>
