<svg width="142" height="142" viewBox="0 0 142 142" fill="none" xmlns="http://www.w3.org/2000/svg">
<g clip-path="url(#clip0_1_710)">
<g clip-path="url(#clip1_1_710)">
<path d="M71.2098 141.495C110.135 141.495 141.69 109.926 141.69 70.9841C141.69 32.0419 110.135 0.472981 71.2098 0.472981C32.2846 0.472981 0.729578 32.0419 0.729578 70.9841C0.729578 109.926 32.2846 141.495 71.2098 141.495Z" fill="#DBEAE5"/>
<path d="M82.638 22.8819C83.4254 21.6743 85.0425 21.3339 86.2511 22.1209C87.4593 22.9086 87.8004 24.5255 87.0137 25.7336C86.2262 26.9412 84.6087 27.2823 83.4005 26.4946C82.1924 25.7068 81.8505 24.0895 82.638 22.8819Z" fill="#384C75"/>
<path d="M42.737 110.046C43.5244 108.838 45.1416 108.498 46.3502 109.285C47.5583 110.073 47.8994 111.69 47.1127 112.898C46.3253 114.105 44.7077 114.446 43.4995 113.659C42.2914 112.871 41.9495 111.253 42.737 110.046Z" fill="#384C75"/>
<path d="M24.5169 47.3262C25.3044 46.1186 26.9215 45.7782 28.1301 46.5652C29.3382 47.3529 29.6793 48.9698 28.8926 50.1778C28.1052 51.3854 26.4876 51.7266 25.2795 50.9388C24.0713 50.1511 23.7295 48.5338 24.5169 47.3262Z" fill="#384C75"/>
<path d="M58.5504 25.4951C58.4343 24.6733 58.4888 23.9589 58.7139 23.3521C58.939 22.7452 59.2856 22.2326 59.7535 21.8142C60.2214 21.3957 60.7819 21.0587 61.4351 20.8031C62.0882 20.5476 62.779 20.3677 63.5076 20.2636L65.1965 20.0223L64.4467 14.7138L67.8444 14.2284L69.8327 28.3049L64.6665 29.043C63.8982 29.1528 63.1689 29.1792 62.4784 29.1224C61.7879 29.0655 61.1704 28.9036 60.6259 28.6366C60.0814 28.3695 59.6279 27.9813 59.2655 27.4719C58.903 26.9626 58.6646 26.3036 58.5504 25.4951ZM61.9453 24.9897C61.9921 25.3211 62.0967 25.5834 62.2592 25.7765C62.4216 25.9697 62.6238 26.1098 62.8659 26.1969C63.1079 26.284 63.3741 26.3271 63.6645 26.3262C63.955 26.3253 64.2525 26.3031 64.5572 26.2595L66.0474 26.0466L65.5784 22.7263L64.1478 22.9307C63.8299 22.9761 63.5289 23.0462 63.245 23.1408C62.9611 23.2355 62.7126 23.3656 62.4995 23.5313C62.2864 23.697 62.1291 23.8986 62.0275 24.1362C61.9259 24.3739 61.8985 24.6584 61.9453 24.9897Z" fill="#384C75"/>
<path d="M43.0227 30.1207C42.4743 29.0038 42.2082 27.9379 42.2245 26.923C42.2407 25.9081 42.4599 24.9723 42.8818 24.1154C43.3038 23.2586 43.8806 22.497 44.6124 21.8305C45.3441 21.1641 46.1483 20.6149 47.0249 20.1828L51.7802 17.839L58.0426 30.5936L53.4314 32.8663C52.5307 33.3102 51.5905 33.6431 50.6107 33.865C49.6309 34.0869 48.6793 34.1233 47.756 33.9743C46.8327 33.8253 45.9604 33.446 45.1391 32.8365C44.3179 32.2269 43.6124 31.3217 43.0227 30.1207ZM46.229 28.5404C46.5828 29.261 46.9932 29.8008 47.4603 30.1598C47.9274 30.5187 48.4254 30.7432 48.9542 30.833C49.4831 30.9229 50.0262 30.9051 50.5835 30.7796C51.1408 30.654 51.6836 30.4611 52.212 30.2006L53.7431 29.446L50.0812 21.9878L48.6222 22.707C48.0698 22.9792 47.5694 23.3042 47.1209 23.6818C46.6725 24.0595 46.3239 24.4886 46.0751 24.9692C45.8264 25.4498 45.7028 25.988 45.7045 26.5838C45.7062 27.1796 45.8811 27.8318 46.229 28.5404Z" fill="#384C75"/>
<path d="M40.7083 38.0673L38.6772 35.957L34.7146 39.7776L32.753 37.7395L36.7156 33.9189L32.8898 29.944L35.3339 27.5875L45.1836 37.8211L38.4442 44.3189L36.4131 42.2086L40.7083 38.0673Z" fill="#384C75"/>
<path d="M16.0447 69.9569L16.147 66.5239L30.5087 61.5475L30.3938 65.402L20.2263 68.4081L20.224 68.4884L30.1957 72.047L30.0826 75.8413L16.0447 69.9569Z" fill="#384C75"/>
<path d="M28.7852 88.2272C27.9809 88.4314 27.2655 88.4542 26.6389 88.2956C26.0124 88.137 25.4667 87.8475 25.0018 87.427C24.537 87.0064 24.1433 86.485 23.8208 85.8626C23.4982 85.2403 23.247 84.5722 23.0671 83.8584L22.65 82.2037L17.4547 83.5224L16.6155 80.1936L30.3918 76.6968L31.6677 81.7582C31.8574 82.5109 31.9603 83.2339 31.9764 83.9271C31.9924 84.6204 31.8964 85.2523 31.6883 85.823C31.4802 86.3936 31.1421 86.8868 30.6741 87.3024C30.2061 87.7181 29.5765 88.0264 28.7852 88.2272ZM27.9266 84.9033C28.2509 84.821 28.5004 84.6886 28.6753 84.5061C28.8501 84.3237 28.9681 84.1073 29.0292 83.8571C29.0904 83.6068 29.1052 83.3372 29.0738 83.0483C29.0424 82.7594 28.989 82.4657 28.9138 82.1672L28.5457 80.7072L25.2963 81.532L25.6496 82.9336C25.7281 83.2451 25.8293 83.537 25.9532 83.8094C26.077 84.0817 26.2324 84.315 26.4194 84.5092C26.6064 84.7033 26.8232 84.8382 27.07 84.9136C27.3167 84.9891 27.6023 84.9856 27.9266 84.9033Z" fill="#384C75"/>
<path d="M26.6952 103.44L31.5175 93.6389L31.4854 93.5879L23.6621 98.6159L21.8893 95.7959L33.9177 88.2112L36.0002 91.5239L31.1843 101.298L31.2163 101.349L39.0226 96.3315L40.7955 99.1515L28.7671 106.736L26.6952 103.44Z" fill="#384C75"/>
<path d="M65.2174 125.657L64.6331 122.713L59.2242 121.731L57.6963 124.292L54.0246 123.626L62.4412 110.698L65.7181 111.293L68.9681 126.337L65.2174 125.657ZM63.3387 114.72L60.6856 119.2L64.1994 119.837L63.3387 114.72Z" fill="#384C75"/>
<path d="M86.0453 117.442C86.2038 118.677 86.1116 119.772 85.7689 120.728C85.4261 121.684 84.917 122.499 84.2414 123.174C83.5658 123.849 82.7745 124.384 81.8673 124.779C80.9601 125.173 80.0222 125.434 79.0535 125.559L73.7989 126.242L71.989 112.142L77.0844 111.479C78.0796 111.35 79.0764 111.339 80.0749 111.445C81.0733 111.552 81.9853 111.824 82.8106 112.264C83.636 112.703 84.3388 113.344 84.9191 114.187C85.4995 115.029 85.8748 116.115 86.0453 117.442ZM82.5024 117.903C82.4001 117.106 82.186 116.462 81.8599 115.971C81.5338 115.481 81.1351 115.107 80.6638 114.851C80.1925 114.595 79.673 114.437 79.1053 114.375C78.5376 114.314 77.9618 114.322 77.378 114.397L75.6862 114.617L76.7445 122.863L78.3567 122.653C78.9671 122.574 79.5453 122.428 80.0914 122.215C80.6374 122.002 81.1056 121.709 81.496 121.334C81.8863 120.959 82.1768 120.49 82.3673 119.925C82.5579 119.36 82.6029 118.686 82.5024 117.903Z" fill="#384C75"/>
<path d="M107.068 108.755C107.51 109.393 107.755 110.017 107.803 110.627C107.851 111.237 107.758 111.819 107.523 112.373C107.288 112.927 106.944 113.448 106.491 113.934C106.037 114.42 105.53 114.858 104.97 115.248L100.319 118.481L92.2249 106.806L96.8758 103.573C97.3266 103.259 97.8208 102.985 98.3583 102.75C98.8959 102.515 99.4352 102.376 99.9763 102.334C100.517 102.292 101.042 102.379 101.551 102.596C102.059 102.812 102.52 103.217 102.931 103.811C103.381 104.46 103.576 105.118 103.518 105.786C103.46 106.453 103.209 107.079 102.767 107.664L102.79 107.697C103.158 107.522 103.539 107.408 103.933 107.354C104.328 107.3 104.712 107.314 105.086 107.396C105.461 107.477 105.818 107.628 106.158 107.848C106.498 108.068 106.801 108.37 107.068 108.755ZM100.473 106.082C100.198 105.686 99.8472 105.503 99.4191 105.532C98.9909 105.56 98.48 105.781 97.8863 106.194L96.5009 107.157L98.17 109.564L99.6873 108.51C100.215 108.143 100.55 107.751 100.693 107.334C100.836 106.917 100.762 106.5 100.473 106.082ZM104.065 110.452C103.729 109.968 103.315 109.759 102.823 109.824C102.331 109.89 101.782 110.133 101.177 110.553L99.6104 111.642L101.462 114.313L103.046 113.213C103.266 113.06 103.48 112.882 103.69 112.679C103.9 112.476 104.067 112.259 104.19 112.026C104.314 111.793 104.374 111.544 104.369 111.279C104.364 111.013 104.263 110.738 104.065 110.452Z" fill="#384C75"/>
<path d="M113.461 107.733L102.409 98.8133L104.578 96.1231L113.304 103.166L116.76 98.8804L119.085 100.758L113.461 107.733Z" fill="#384C75"/>
<path d="M120.041 80.1139C121.085 80.5291 121.967 81.0888 122.687 81.7931C123.407 82.4975 123.947 83.2924 124.307 84.1779C124.667 85.0634 124.838 86.0146 124.822 87.0315C124.806 88.0485 124.592 89.0733 124.18 90.1062C123.769 91.139 123.221 92.0273 122.536 92.7711C121.851 93.515 121.074 94.085 120.203 94.4812C119.333 94.8774 118.394 95.0842 117.387 95.1016C116.379 95.119 115.354 94.9201 114.31 94.505C113.254 94.0849 112.372 93.5252 111.664 92.8258C110.957 92.1264 110.433 91.3376 110.091 90.4596C109.75 89.5815 109.593 88.6396 109.619 87.6338C109.645 86.628 109.864 85.6087 110.275 84.5759C110.687 83.5431 111.23 82.6492 111.905 81.8942C112.58 81.1392 113.343 80.5598 114.195 80.1562C115.046 79.7526 115.97 79.5396 116.965 79.5173C117.959 79.495 118.985 79.6938 120.041 80.1139ZM118.681 83.5297C118.109 83.3024 117.538 83.1832 116.966 83.1721C116.395 83.1611 115.867 83.25 115.381 83.439C114.896 83.6279 114.457 83.9149 114.067 84.2999C113.676 84.685 113.369 85.1576 113.146 85.7175C112.923 86.2775 112.822 86.8285 112.844 87.3704C112.865 87.9124 112.986 88.4218 113.207 88.8986C113.427 89.3754 113.75 89.8029 114.175 90.181C114.6 90.5591 115.099 90.8619 115.67 91.0892C116.267 91.3264 116.854 91.4518 117.431 91.4653C118.009 91.4788 118.544 91.3923 119.035 91.2059C119.527 91.0195 119.967 90.7368 120.356 90.3579C120.744 89.9791 121.05 89.5097 121.273 88.9497C121.496 88.3897 121.596 87.8388 121.575 87.2968C121.553 86.7548 121.429 86.2442 121.202 85.7649C120.976 85.2856 120.648 84.8526 120.219 84.4657C119.79 84.0789 119.277 83.7669 118.681 83.5297Z" fill="#384C75"/>
<path d="M125.831 64.314C126.535 64.9628 127.084 65.7547 127.479 66.6897C127.874 67.6247 128.054 68.6945 128.019 69.8991C127.988 70.9966 127.778 72.0055 127.391 72.9258C127.003 73.8462 126.468 74.6386 125.787 75.3031C125.105 75.9676 124.298 76.4814 123.364 76.8443C122.43 77.2073 121.408 77.3736 120.298 77.3433C119.161 77.3122 118.137 77.0867 117.226 76.6667C116.315 76.2466 115.544 75.6798 114.916 74.9661C114.287 74.2524 113.813 73.4224 113.492 72.476C113.171 71.5296 113.026 70.5143 113.057 69.4302C113.086 68.4264 113.291 67.4442 113.674 66.4835C114.056 65.5228 114.597 64.7506 115.296 64.167L117.556 66.5594C117.105 66.8685 116.766 67.2812 116.537 67.7973C116.308 68.3135 116.185 68.8459 116.17 69.3947C116.152 69.9969 116.247 70.5521 116.453 71.06C116.659 71.5679 116.951 72.0079 117.329 72.3798C117.706 72.7518 118.156 73.0454 118.679 73.2606C119.201 73.4757 119.777 73.5919 120.405 73.6091C121.047 73.6266 121.638 73.5423 122.179 73.3561C122.72 73.17 123.186 72.9048 123.577 72.5605C123.968 72.2162 124.278 71.7994 124.506 71.31C124.734 70.8207 124.857 70.2815 124.874 69.6926C124.893 69.01 124.777 68.4108 124.524 67.8949C124.271 67.379 123.935 66.9613 123.516 66.6417L125.831 64.314Z" fill="#384C75"/>
<path d="M124.349 50.9674L119.551 57.8813L119.562 57.9198L125.841 56.0737L126.787 59.3108L113.151 63.3203L112.205 60.0831L117.752 58.4522L117.735 58.3944L110.763 55.1503L109.558 51.0268L117.554 55.0576L123.093 46.6705L124.349 50.9674Z" fill="#384C75"/>
<path d="M120.646 42.5287L108.731 50.2907L103.528 42.2809L105.968 40.6912L109.367 45.9245L111.605 44.4664L108.392 39.5191L110.698 38.0172L113.911 42.9644L116.385 41.3528L112.789 35.8166L115.246 34.2159L120.646 42.5287Z" fill="#384C75"/>
<path d="M105.157 25.1511L103.898 31.454L104.792 32.1996L108.407 27.8633L110.994 30.0228L101.885 40.9483L97.7273 37.4777C97.2037 37.0407 96.7379 36.5603 96.33 36.0367C95.9221 35.5131 95.6277 34.9577 95.4469 34.3706C95.266 33.7835 95.2333 33.1805 95.3488 32.5616C95.4643 31.9427 95.7837 31.3195 96.3069 30.6919C96.9244 29.9512 97.6435 29.4959 98.4642 29.326C99.2849 29.1561 100.14 29.2588 101.028 29.6341L102.077 22.5803L105.157 25.1511ZM98.9482 32.818C98.7338 33.0752 98.614 33.3285 98.5888 33.5779C98.5637 33.8273 98.5994 34.0665 98.6959 34.2953C98.7924 34.5242 98.933 34.7418 99.1178 34.9484C99.3025 35.1549 99.4924 35.3396 99.6875 35.5024L101.089 36.6721L103.212 34.1259L101.964 33.0847C101.749 32.9048 101.513 32.7386 101.257 32.586C101.001 32.4335 100.742 32.3264 100.48 32.2648C100.218 32.2031 99.9552 32.2105 99.6914 32.2868C99.4275 32.3631 99.1798 32.5402 98.9482 32.818Z" fill="#384C75"/>
</g>
</g>
<defs>
<clipPath id="clip0_1_710">
<rect width="141.71" height="141.71" fill="white" transform="scale(1.00205)"/>
</clipPath>
<clipPath id="clip1_1_710">
<rect width="141.71" height="141.71" fill="white" transform="scale(1.00205)"/>
</clipPath>
</defs>
</svg>
