<svg width="173" height="173" viewBox="0 0 173 173" fill="none" xmlns="http://www.w3.org/2000/svg">
<g clip-path="url(#clip0_1_65)">
<g clip-path="url(#clip1_1_65)">
<path d="M11.4365 42.3156C1.83141 46.4655 -2.59114 57.6157 1.55841 67.2209L42.3159 161.563C46.4655 171.169 57.6158 175.591 67.221 171.442L161.564 130.684C171.168 126.535 175.591 115.384 171.442 105.779L130.684 11.437C126.534 1.83179 115.384 -2.59094 105.779 1.55804L11.4365 42.3156Z" fill="#F0AD84"/>
<path d="M60.6212 91.9573L56.5572 90.3154L48.5368 100.474L48.4647 100.445L49.7519 87.5659L45.6639 85.9142L33.9517 100.987L38.3764 102.774L45.6457 92.5364L45.7179 92.5655L44.1717 105.116L48.4521 106.845L56.0822 96.7529L56.1543 96.7821L54.3196 109.216L58.6 110.945L60.6212 91.9573Z" fill="#A54E34"/>
<path d="M81.825 110.51C82.369 109.164 82.6337 107.839 82.6189 106.537C82.6042 105.235 82.3443 104.021 81.8393 102.894C81.3343 101.767 80.6001 100.757 79.6368 99.8639C78.6735 98.9712 77.5265 98.2561 76.1959 97.7185C74.8653 97.1809 73.5474 96.9002 72.2423 96.8764C70.9372 96.8526 69.7116 97.0707 68.5653 97.5307C67.4191 97.9907 66.3885 98.6838 65.4734 99.6102C64.5583 100.537 63.8287 101.673 63.2847 103.02C62.7341 104.382 62.4695 105.707 62.4907 106.993C62.5119 108.279 62.7799 109.473 63.2946 110.576C63.8093 111.679 64.5476 112.668 65.5094 113.541C66.4712 114.414 67.6174 115.12 68.948 115.658C70.2786 116.195 71.5972 116.486 72.9039 116.529C74.2105 116.572 75.4321 116.375 76.5686 115.939C77.7051 115.503 78.7277 114.83 79.6362 113.92C80.5448 113.01 81.2744 111.873 81.825 110.51ZM77.4243 108.732C77.1264 109.47 76.7277 110.111 76.2281 110.655C75.7285 111.199 75.1741 111.614 74.5646 111.899C73.9552 112.184 73.2965 112.337 72.5884 112.359C71.8804 112.381 71.1656 112.246 70.4442 111.954C69.7228 111.663 69.119 111.265 68.6327 110.761C68.1464 110.257 67.7791 109.689 67.5309 109.057C67.2826 108.425 67.1718 107.742 67.1984 107.007C67.2251 106.271 67.3873 105.535 67.6853 104.798C67.9962 104.028 68.403 103.367 68.9058 102.815C69.4086 102.263 69.9663 101.84 70.579 101.547C71.1917 101.254 71.848 101.095 72.5481 101.07C73.2481 101.045 73.9588 101.178 74.6802 101.47C75.4016 101.761 76.0055 102.159 76.4918 102.663C76.9781 103.167 77.3437 103.739 77.5887 104.379C77.8337 105.019 77.9453 105.712 77.9235 106.459C77.9016 107.205 77.7352 107.963 77.4243 108.732Z" fill="#A54E34"/>
<path d="M97.7258 106.949L91.3165 112.219L89.9218 111.656L92.6519 104.899L88.612 103.266L81.7333 120.292L88.226 122.915C89.0436 123.245 89.8752 123.483 90.7207 123.629C91.5662 123.775 92.3786 123.772 93.1577 123.621C93.9368 123.469 94.6435 123.139 95.2778 122.631C95.9121 122.123 96.4268 121.38 96.8219 120.402C97.2882 119.248 97.3675 118.151 97.0597 117.113C96.7518 116.075 96.1128 115.164 95.1427 114.381L102.535 108.892L97.7258 106.949ZM92.7871 118.688C92.6252 119.088 92.4098 119.379 92.1411 119.56C91.8724 119.74 91.5782 119.845 91.2587 119.874C90.9391 119.904 90.6053 119.876 90.2572 119.791C89.9091 119.707 89.5828 119.603 89.2782 119.48L87.0899 118.596L88.693 114.628L90.6408 115.415C90.9775 115.551 91.3108 115.718 91.6408 115.917C91.9708 116.115 92.251 116.345 92.4812 116.606C92.7115 116.867 92.8638 117.171 92.938 117.518C93.0123 117.865 92.962 118.255 92.7871 118.688Z" fill="#A54E34"/>
<path d="M115.569 114.158L106.077 119.442L106.029 119.422L109.196 111.583L105.156 109.951L98.2777 126.976L102.318 128.608L105.116 121.683L105.188 121.712L108.474 131.095L113.62 133.175L109.453 122.372L120.931 116.324L115.569 114.158Z" fill="#A54E34"/>
<path d="M76.9498 70.582L72.8858 68.9401L64.8654 79.0985L64.7933 79.0693L66.0805 66.1906L61.9925 64.5389L50.2803 79.6114L54.705 81.3991L61.9743 71.161L62.0465 71.1902L60.5003 83.7405L64.7807 85.4699L72.4108 75.3776L72.4829 75.4068L70.6482 87.8405L74.9286 89.5699L76.9498 70.582Z" fill="#A54E34"/>
<path d="M84.1639 73.4968L77.2852 90.5221L81.4213 92.1932L88.3 75.1679L84.1639 73.4968Z" fill="#A54E34"/>
<path d="M94.2381 93.2875L99.6983 79.773L95.5862 78.1116L90.126 91.6261L85.3166 89.683L83.8981 93.1938L97.629 98.7415L99.0475 95.2306L94.2381 93.2875Z" fill="#A54E34"/>
<path d="M117.734 87.0598L114.858 94.1777L108.221 91.4962L111.097 84.3782L106.985 82.7169L100.106 99.7422L104.218 101.404L106.822 94.9589L113.459 97.6405L110.855 104.085L114.967 105.746L121.846 88.7211L117.734 87.0598Z" fill="#A54E34"/>
<path d="M82.1091 58.4006C82.5107 57.4067 82.6648 56.4946 82.5713 55.6643C82.4779 54.834 82.2028 54.0841 81.7459 53.4147C81.2891 52.7452 80.6908 52.1492 79.9509 51.6265C79.211 51.1038 78.4002 50.6643 77.5185 50.308L75.4745 49.4822L78.0686 43.0616L73.9565 41.4003L67.0779 58.4256L73.3301 60.9517C74.2599 61.3273 75.1669 61.5865 76.0509 61.7293C76.935 61.872 77.7602 61.8604 78.5265 61.6945C79.2929 61.5286 79.9828 61.1826 80.5963 60.6566C81.2097 60.1305 81.714 59.3786 82.1091 58.4006ZM78.0068 56.7152C77.8449 57.116 77.6319 57.4123 77.368 57.604C77.104 57.7957 76.8067 57.9087 76.4758 57.9428C76.145 57.977 75.7975 57.9485 75.4334 57.8574C75.0693 57.7662 74.7029 57.6461 74.3342 57.4971L72.5307 56.7685L74.1532 52.7526L75.8846 53.4521C76.2693 53.6076 76.6251 53.7886 76.9519 53.9953C77.2786 54.2019 77.5499 54.442 77.7657 54.7157C77.9815 54.9893 78.1161 55.2908 78.1695 55.6201C78.223 55.9494 78.1687 56.3144 78.0068 56.7152Z" fill="#A54E34"/>
<path d="M89.9478 47.8611L83.0692 64.8865L87.2052 66.5576L94.0839 49.5322L89.9478 47.8611Z" fill="#A54E34"/>
<path d="M112.225 59.6031C111.821 58.433 111.169 57.372 110.266 56.42C109.364 55.4681 108.192 54.7007 106.749 54.1178C105.434 53.5867 104.133 53.3124 102.843 53.2951C101.554 53.2778 100.341 53.5008 99.2026 53.964C98.0644 54.4272 97.0393 55.118 96.1275 56.0363C95.2157 56.9546 94.491 58.0791 93.9534 59.4097C93.4028 60.7724 93.1405 62.1023 93.1665 63.3996C93.1925 64.6968 93.4653 65.9026 93.9848 67.0169C94.5043 68.1313 95.2409 69.1235 96.1947 69.9937C97.1485 70.864 98.2747 71.5614 99.5732 72.086C100.776 72.5718 102.044 72.8371 103.378 72.8819C104.712 72.9266 105.904 72.6859 106.956 72.1598L105.294 68.2433C104.695 68.6169 104.031 68.8056 103.303 68.8095C102.574 68.8134 101.881 68.6826 101.223 68.417C100.502 68.1256 99.8942 67.7261 99.3998 67.2187C98.9055 66.7113 98.5359 66.1377 98.2909 65.4979C98.0459 64.8581 97.931 64.173 97.9464 63.4426C97.9618 62.7122 98.1217 61.9703 98.4261 61.2168C98.737 60.4473 99.1422 59.7905 99.6418 59.2464C100.141 58.7023 100.696 58.2876 101.305 58.0024C101.915 57.7171 102.568 57.5661 103.265 57.5492C103.961 57.5324 104.662 57.6665 105.368 57.9515C106.185 58.2818 106.834 58.7303 107.314 59.2971C107.793 59.8638 108.114 60.4782 108.275 61.1402L112.225 59.6031Z" fill="#A54E34"/>
<path d="M119.436 74.4329C118.902 74.7392 118.297 74.9097 117.621 74.9443C116.945 74.9789 116.343 74.8893 115.814 74.6756C115.541 74.5654 115.274 74.4297 115.013 74.2682C114.752 74.1068 114.537 73.9126 114.368 73.6856C114.198 73.4587 114.081 73.2062 114.016 72.9283C113.951 72.6503 113.987 72.343 114.123 72.0064C114.24 71.7178 114.397 71.5016 114.595 71.3578C114.793 71.214 115.037 71.1169 115.328 71.0666C115.619 71.0162 115.949 70.9957 116.318 71.005C116.687 71.0143 117.098 71.0358 117.551 71.0695C118.205 71.1103 118.892 71.1407 119.612 71.1609C120.331 71.181 121.024 71.1024 121.693 70.9249C122.361 70.7474 122.979 70.4421 123.545 70.009C124.112 69.5759 124.567 68.9345 124.91 68.0849C125.305 67.107 125.467 66.1884 125.394 65.3293C125.322 64.4702 125.075 63.6851 124.654 62.9741C124.232 62.263 123.674 61.6366 122.979 61.0948C122.284 60.553 121.52 60.1136 120.686 59.7768C119.468 59.2846 118.204 59.0209 116.894 58.9859C115.584 58.9508 114.394 59.1739 113.323 59.655L114.909 63.4845C115.533 63.1399 116.255 62.9329 117.076 62.8635C117.896 62.7941 118.643 62.8954 119.317 63.1675C119.621 63.2905 119.905 63.4424 120.167 63.6231C120.43 63.8038 120.64 64.0101 120.799 64.2418C120.957 64.4735 121.051 64.7355 121.082 65.0278C121.114 65.3201 121.061 65.6346 120.925 65.9712C120.796 66.2919 120.605 66.532 120.354 66.6917C120.103 66.8513 119.792 66.9634 119.421 67.028C119.05 67.0925 118.613 67.1119 118.111 67.086C117.609 67.0602 117.041 67.0221 116.409 66.9718C115.793 66.9279 115.175 66.9209 114.557 66.9509C113.939 66.9809 113.349 67.1016 112.788 67.3132C112.227 67.5248 111.714 67.8489 111.249 68.2856C110.783 68.7222 110.395 69.3253 110.084 70.0948C109.702 71.0407 109.567 71.928 109.68 72.7567C109.793 73.5855 110.074 74.3426 110.524 75.0281C110.975 75.7135 111.552 76.3151 112.257 76.8329C112.961 77.3507 113.715 77.7715 114.516 78.0953C115.478 78.484 116.531 78.7043 117.676 78.7565C118.82 78.8086 119.908 78.6422 120.94 78.2573L119.436 74.4329Z" fill="#A54E34"/>
</g>
</g>
<defs>
<clipPath id="clip0_1_65">
<rect width="173" height="173" fill="white" transform="matrix(1 0 0 -1 0 173)"/>
</clipPath>
<clipPath id="clip1_1_65">
<rect width="173" height="173" fill="white" transform="matrix(1 0 0 -1 0 173)"/>
</clipPath>
</defs>
</svg>
