<svg width="169" height="169" viewBox="0 0 169 169" fill="none" xmlns="http://www.w3.org/2000/svg">
<g clip-path="url(#clip0_1_155)">
<g clip-path="url(#clip1_1_155)">
<path d="M13.3295 134.054L107.931 167.557C118.23 171.209 129.528 165.912 133.338 155.715L133.458 155.385C133.459 155.383 133.459 155.382 133.456 155.379L166.949 60.7329C170.63 50.3201 165.178 38.8932 154.769 35.2021L60.1679 1.69978C49.8681 -1.95261 38.5706 3.3446 34.7605 13.541L34.6402 13.8716C34.6397 13.873 34.6392 13.8745 34.643 13.8774L1.14905 108.524C-2.53102 118.936 2.92065 130.363 13.3295 134.054Z" fill="#99D7F1"/>
<path d="M55.3959 106.024C55.7625 105.016 55.8847 104.099 55.7623 103.273C55.64 102.446 55.3388 101.706 54.8589 101.053C54.379 100.4 53.7602 99.8255 53.0026 99.3289C52.2449 98.8324 51.4192 98.4214 50.5256 98.0962L48.454 97.3422L50.8225 90.835L46.6549 89.3182L40.3746 106.573L46.7112 108.88C47.6536 109.223 48.569 109.45 49.4575 109.562C50.3461 109.673 51.1704 109.633 51.9304 109.441C52.6905 109.248 53.3679 108.878 53.9627 108.331C54.5574 107.784 55.0352 107.015 55.3959 106.024ZM51.2372 104.482C51.0894 104.889 50.8869 105.192 50.6298 105.393C50.3727 105.594 50.0795 105.717 49.75 105.763C49.4206 105.808 49.0724 105.792 48.7053 105.714C48.3382 105.635 47.9678 105.528 47.5941 105.392L45.7663 104.727L47.2477 100.657L49.0024 101.295C49.3924 101.437 49.7542 101.606 50.088 101.801C50.4218 101.996 50.7013 102.227 50.9265 102.493C51.1517 102.758 51.2967 103.055 51.3616 103.382C51.4266 103.71 51.3851 104.076 51.2372 104.482Z" fill="#384C75"/>
<path d="M62.862 95.2169L56.5817 112.472L60.7736 113.998L65.7322 100.374L72.41 102.805L73.7317 99.1732L62.862 95.2169Z" fill="#384C75"/>
<path d="M87.989 104.363L85.4155 107.262L78.7377 104.832L78.7034 100.983L74.1703 99.333L75.1283 119.223L79.174 120.695L92.6195 106.048L87.989 104.363ZM78.7546 115.326L78.7167 108.605L83.0548 110.184L78.7546 115.326Z" fill="#384C75"/>
<path d="M105.634 110.785L94.5809 119.541L94.5078 119.514L98.7123 108.266L94.6667 106.793L88.3864 124.048L93.1388 125.778L104.158 117.037L104.232 117.064L100.036 128.288L104.082 129.761L110.362 112.506L105.634 110.785Z" fill="#384C75"/>
<path d="M58.7623 74.4048L61.4235 67.0933L57.2559 65.5765L54.5948 72.8879L44.4928 80.4719L49.5377 82.3081L55.5419 77.2622L56.8979 84.987L61.7722 86.7611L58.7623 74.4048Z" fill="#384C75"/>
<path d="M83.9929 85.1612C84.4897 83.7964 84.7079 82.4637 84.6478 81.163C84.5876 79.8623 84.2855 78.6575 83.7414 77.5487C83.1974 76.4399 82.4285 75.4562 81.4345 74.5976C80.4406 73.7391 79.2694 73.0644 77.9208 72.5735C76.5723 72.0827 75.2454 71.8482 73.9403 71.87C72.6352 71.8917 71.4179 72.1525 70.2884 72.6522C69.1589 73.1519 68.1531 73.8806 67.2709 74.8383C66.3887 75.796 65.6992 76.9573 65.2025 78.3221C64.6998 79.7031 64.4816 81.0359 64.5477 82.3204C64.6137 83.6048 64.9232 84.7893 65.4761 85.8737C66.029 86.9582 66.8013 87.9201 67.793 88.7594C68.7848 89.5988 69.9549 90.2638 71.3034 90.7547C72.652 91.2455 73.9799 91.4897 75.2873 91.4871C76.5946 91.4845 77.8086 91.2456 78.9292 90.7702C80.0498 90.2949 81.0483 89.5865 81.9245 88.645C82.8008 87.7036 83.4903 86.5423 83.9929 85.1612ZM79.5329 83.5379C79.2609 84.2853 78.8848 84.9396 78.4045 85.5008C77.9242 86.062 77.3846 86.4958 76.7855 86.8022C76.1864 87.1085 75.5334 87.2848 74.8265 87.3312C74.1196 87.3775 73.4006 87.2676 72.6695 87.0015C71.9383 86.7354 71.321 86.3589 70.8174 85.872C70.3138 85.3851 69.9269 84.8303 69.6568 84.2075C69.3866 83.5848 69.252 82.9056 69.253 82.17C69.254 81.4343 69.3904 80.6928 69.6625 79.9454C69.9463 79.1655 70.3299 78.4909 70.8131 77.9216C71.2963 77.3522 71.8389 76.9104 72.441 76.5959C73.0431 76.2814 73.6935 76.0995 74.3922 76.0502C75.0909 76.001 75.8059 76.1094 76.537 76.3755C77.2682 76.6416 77.8855 77.0181 78.3891 77.505C78.8927 77.9919 79.2781 78.5508 79.5453 79.1816C79.8125 79.8125 79.9482 80.5013 79.9524 81.248C79.9566 81.9947 79.8168 82.7581 79.5329 83.5379Z" fill="#384C75"/>
<path d="M102.777 89.5142C103.156 88.4743 103.326 87.4643 103.287 86.4842C103.248 85.504 103.014 84.5911 102.586 83.7452C102.158 82.8994 101.547 82.1388 100.753 81.4635C99.9596 80.7882 99.0022 80.2465 97.8811 79.8384C96.7437 79.4245 95.658 79.2225 94.624 79.2326C93.5899 79.2426 92.6452 79.4369 91.7898 79.8156C90.9343 80.1943 90.1808 80.748 89.5291 81.4768C88.8775 82.2056 88.3624 83.0899 87.9839 84.1298L84.072 94.8776L88.2152 96.3856L92.0029 85.979C92.1744 85.5078 92.3979 85.0832 92.6735 84.7051C92.9492 84.327 93.2735 84.0172 93.6466 83.7758C94.0196 83.5344 94.4488 83.3916 94.9341 83.3474C95.4194 83.3033 95.9545 83.3876 96.5394 83.6005C97.1243 83.8134 97.5884 84.0927 97.9318 84.4385C98.2751 84.7843 98.5162 85.171 98.6549 85.5987C98.7936 86.0264 98.843 86.4722 98.803 86.936C98.763 87.3998 98.6572 87.8674 98.4857 88.3385L94.698 98.7452L98.8655 100.262L102.777 89.5142Z" fill="#384C75"/>
<path d="M118.355 87.8148L112.134 93.306L110.72 92.7916L113.213 85.9432L109.118 84.4529L102.838 101.708L109.418 104.103C110.247 104.405 111.086 104.613 111.936 104.73C112.787 104.846 113.598 104.815 114.372 104.636C115.145 104.458 115.84 104.103 116.456 103.573C117.072 103.043 117.561 102.282 117.921 101.291C118.347 100.122 118.388 99.0233 118.044 97.9965C117.7 96.9697 117.03 96.0817 116.033 95.3325L123.229 89.5889L118.355 87.8148ZM113.829 99.7192C113.681 100.125 113.476 100.423 113.214 100.613C112.952 100.803 112.661 100.918 112.343 100.958C112.025 100.999 111.69 100.983 111.339 100.911C110.988 100.838 110.659 100.746 110.35 100.633L108.132 99.8261L109.596 95.8048L111.57 96.5233C111.911 96.6475 112.25 96.803 112.587 96.99C112.924 97.177 113.212 97.3968 113.451 97.6495C113.69 97.9021 113.853 98.2006 113.939 98.5448C114.025 98.889 113.989 99.2805 113.829 99.7192Z" fill="#384C75"/>
<path d="M84.9272 57.8736C85.4771 56.3625 85.6714 54.9566 85.5101 53.6559C85.3487 52.3552 84.9376 51.1843 84.2769 50.1435C83.6161 49.1026 82.7696 48.2056 81.7372 47.4527C80.7049 46.6997 79.5957 46.1074 78.4096 45.6757L71.9755 43.3339L65.6952 60.5889L71.9343 62.8598C73.1529 63.3033 74.4069 63.5987 75.6965 63.7461C76.9861 63.8935 78.2137 63.8067 79.3793 63.4857C80.5449 63.1648 81.6131 62.5554 82.5839 61.6575C83.5547 60.7596 84.3358 59.4983 84.9272 57.8736ZM80.589 56.2946C80.2342 57.2695 79.7816 58.0201 79.2312 58.5466C78.6808 59.0731 78.072 59.4311 77.405 59.6207C76.738 59.8104 76.0378 59.8637 75.3044 59.7808C74.571 59.6978 73.8468 59.5263 73.1319 59.2661L71.0603 58.5121L74.7327 48.4223L76.7068 49.1408C77.4542 49.4128 78.1421 49.7598 78.7705 50.1817C79.399 50.6036 79.9062 51.1057 80.2924 51.6878C80.6785 52.27 80.9117 52.9436 80.992 53.7089C81.0723 54.4741 80.9379 55.336 80.589 56.2946Z" fill="#384C75"/>
<path d="M102.562 54.4664L99.9883 57.3662L93.3105 54.9356L93.2762 51.0867L88.7431 49.4368L89.7011 69.3264L93.7468 70.7989L107.192 56.1518L102.562 54.4664ZM93.3273 65.4298L93.2894 58.7092L97.6276 60.2881L93.3273 65.4298Z" fill="#384C75"/>
<path d="M113.5 66.7276L116.161 59.4161L111.993 57.8993L109.332 65.2107L99.2303 72.7947L104.275 74.6309L110.279 69.585L111.635 77.3098L116.51 79.0839L113.5 66.7276Z" fill="#384C75"/>
</g>
</g>
<defs>
<clipPath id="clip0_1_155">
<rect width="169" height="169" fill="white" transform="matrix(1 0 0 -1 0 169)"/>
</clipPath>
<clipPath id="clip1_1_155">
<rect width="169" height="169" fill="white" transform="matrix(1 0 0 -1 0 169)"/>
</clipPath>
</defs>
</svg>
