<svg width="175" height="176" viewBox="0 0 175 176" fill="none" xmlns="http://www.w3.org/2000/svg">
<g clip-path="url(#clip0_1_82)">
<g clip-path="url(#clip1_1_82)">
<path d="M10.5978 47.2764C1.22044 51.8925 -2.66076 63.2795 1.92885 72.7102L47.0082 165.341C51.5978 174.772 62.9202 178.676 72.2973 174.06L164.402 128.723C173.779 124.107 177.66 112.72 173.072 103.289L127.992 10.6582C123.402 1.22746 112.08 -2.67561 102.703 1.93945L10.5978 47.2764Z" fill="#DBEAE5"/>
<path d="M61.549 99.9935C61.0317 100.327 60.4364 100.529 59.7632 100.599C59.0899 100.669 58.4835 100.611 57.944 100.425C57.6661 100.33 57.3925 100.208 57.1233 100.061C56.8541 99.913 56.629 99.7303 56.448 99.5126C56.2669 99.2948 56.1368 99.0488 56.0575 98.7746C55.9781 98.5005 55.9976 98.1917 56.1158 97.8484C56.2171 97.5541 56.3629 97.33 56.553 97.176C56.7432 97.0221 56.9821 96.9123 57.2699 96.8468C57.5576 96.7813 57.886 96.7436 58.2552 96.7335C58.6244 96.7235 59.0359 96.7235 59.4896 96.7334C60.1457 96.7399 60.8334 96.7343 61.5526 96.7168C62.2718 96.6993 62.9605 96.5845 63.6188 96.3722C64.277 96.16 64.8777 95.8228 65.4209 95.3607C65.964 94.8985 66.3848 94.2342 66.6831 93.3677C67.0265 92.3705 67.1395 91.4448 67.0222 90.5906C66.9048 89.7364 66.6172 88.9654 66.1592 88.2773C65.7012 87.5893 65.1111 86.993 64.3888 86.4883C63.6665 85.9835 62.8803 85.5848 62.0302 85.2921C60.7877 84.8643 59.5115 84.6672 58.2016 84.7007C56.8917 84.7343 55.7147 85.0193 54.6705 85.5558L56.4544 89.2971C57.0596 88.9203 57.7701 88.6758 58.5859 88.5635C59.4018 88.4513 60.153 88.5134 60.8396 88.7498C61.1503 88.8568 61.4415 88.9936 61.7132 89.1603C61.985 89.327 62.2059 89.522 62.3759 89.7451C62.5459 89.9682 62.6541 90.2249 62.7005 90.5152C62.7468 90.8054 62.7109 91.1222 62.5927 91.4655C62.4801 91.7925 62.3027 92.0423 62.0604 92.2149C61.8181 92.3875 61.5133 92.5157 61.1462 92.5995C60.779 92.6834 60.3439 92.7256 59.8408 92.7261C59.3377 92.7266 58.7692 92.7183 58.135 92.7011C57.5173 92.6895 56.9005 92.7149 56.2847 92.7772C55.669 92.8394 55.0865 92.9909 54.5374 93.2315C53.9882 93.4722 53.4926 93.8227 53.0506 94.2831C52.6087 94.7435 52.2526 95.3661 51.9824 96.1508C51.6502 97.1154 51.5621 98.0085 51.7181 98.8303C51.874 99.652 52.1948 100.393 52.6804 101.054C53.166 101.715 53.7741 102.286 54.5048 102.766C55.2355 103.246 56.0096 103.627 56.827 103.908C57.8079 104.246 58.8712 104.411 60.0168 104.403C61.1624 104.395 62.2404 104.172 63.2509 103.734L61.549 99.9935Z" fill="#384C75"/>
<path d="M74.2741 105.417L79.0195 91.6358L74.8262 90.1919L70.0807 103.974L65.1762 102.285L63.9434 105.865L77.9458 110.687L79.1786 107.106L74.2741 105.417Z" fill="#384C75"/>
<path d="M96.7494 97.7406L94.2269 100.685L87.5077 98.3712L87.4063 94.5235L82.8451 92.9529L84.15 112.823L88.2208 114.224L101.409 99.3449L96.7494 97.7406ZM87.7077 108.863L87.5525 102.145L91.9176 103.648L87.7077 108.863Z" fill="#384C75"/>
<path d="M107.9 109.809L110.433 102.452L106.24 101.008L103.707 108.365L93.7386 116.124L98.8147 117.872L104.73 112.722L106.221 120.422L111.125 122.111L107.9 109.809Z" fill="#384C75"/>
<path d="M51.4169 69.0747C50.8996 69.4086 50.3043 69.6105 49.6311 69.6804C48.9578 69.7503 48.3515 69.6924 47.812 69.5066C47.534 69.4109 47.2605 69.2893 46.9913 69.1417C46.7221 68.9942 46.4969 68.8115 46.3159 68.5937C46.1349 68.376 46.0047 68.13 45.9254 67.8558C45.8461 67.5816 45.8655 67.2729 45.9837 66.9296C46.0851 66.6353 46.2308 66.4112 46.421 66.2572C46.6111 66.1033 46.8501 65.9935 47.1378 65.928C47.4255 65.8625 47.754 65.8247 48.1231 65.8147C48.4923 65.8047 48.9038 65.8046 49.3575 65.8146C50.0136 65.821 50.7013 65.8155 51.4205 65.798C52.1397 65.7805 52.8284 65.6656 53.4867 65.4534C54.1449 65.2412 54.7456 64.904 55.2888 64.4418C55.8319 63.9797 56.2527 63.3154 56.551 62.4489C56.8944 61.4516 57.0074 60.5259 56.8901 59.6718C56.7728 58.8176 56.4851 58.0465 56.0271 57.3585C55.5691 56.6705 54.979 56.0741 54.2567 55.5694C53.5345 55.0647 52.7483 54.666 51.8982 54.3733C50.6557 53.9455 49.3795 53.7483 48.0696 53.7819C46.7597 53.8155 45.5826 54.1005 44.5384 54.637L46.3223 58.3783C46.9275 58.0015 47.638 57.757 48.4539 57.6447C49.2697 57.5325 50.0209 57.5946 50.7076 57.831C51.0182 57.9379 51.3094 58.0748 51.5811 58.2415C51.8529 58.4082 52.0738 58.6031 52.2438 58.8263C52.4139 59.0494 52.5221 59.3061 52.5684 59.5963C52.6148 59.8866 52.5788 60.2034 52.4606 60.5467C52.348 60.8737 52.1706 61.1235 51.9283 61.296C51.686 61.4686 51.3813 61.5969 51.0141 61.6807C50.6469 61.7646 50.2118 61.8068 49.7087 61.8073C49.2057 61.8078 48.6371 61.7994 48.003 61.7823C47.3852 61.7707 46.7684 61.7961 46.1527 61.8583C45.5369 61.9206 44.9545 62.0721 44.4053 62.3127C43.8561 62.5533 43.3605 62.9039 42.9186 63.3643C42.4766 63.8247 42.1205 64.4473 41.8503 65.232C41.5182 66.1966 41.4301 67.0897 41.586 67.9114C41.7419 68.7332 42.0627 69.4745 42.5483 70.1355C43.0339 70.7964 43.6421 71.367 44.3728 71.8472C45.1035 72.3273 45.8775 72.7082 46.695 72.9896C47.6759 73.3274 48.7391 73.4923 49.8847 73.4845C51.0304 73.4767 52.1084 73.2535 53.1188 72.8151L51.4169 69.0747Z" fill="#384C75"/>
<path d="M61.7759 58.2683L55.7977 75.6302L67.4705 79.6495L68.6948 76.0937L61.0683 73.4677L62.1913 70.2062L69.4009 72.6887L70.5577 69.3291L63.3481 66.8466L64.5893 63.2418L72.6573 66.0198L73.8901 62.4395L61.7759 58.2683Z" fill="#384C75"/>
<path d="M91.7243 71.2685C91.2599 70.1211 90.5523 69.0957 89.6016 68.1923C88.6509 67.2889 87.4398 66.5839 85.9685 66.0773C84.6279 65.6157 83.3135 65.41 82.0253 65.4602C80.7371 65.5103 79.5368 65.7965 78.4244 66.3187C77.312 66.8408 76.3245 67.5843 75.462 68.5491C74.5995 69.5139 73.9346 70.6747 73.4674 72.0317C72.9889 73.4213 72.7966 74.7631 72.8905 76.0572C72.9843 77.3513 73.3198 78.5412 73.8969 79.6268C74.474 80.7124 75.2616 81.6648 76.2596 82.4839C77.2576 83.303 78.4187 83.9405 79.743 84.3965C80.9691 84.8187 82.2494 85.0172 83.5838 84.9921C84.9182 84.967 86.0968 84.6642 87.1196 84.0837L85.2545 80.2596C84.6763 80.664 84.0235 80.8872 83.2958 80.9293C82.5681 80.9713 81.8692 80.8769 81.1989 80.6461C80.4632 80.3928 79.8353 80.0257 79.3151 79.5449C78.7949 79.0641 78.3958 78.5106 78.1176 77.8845C77.8394 77.2584 77.6889 76.5803 77.666 75.8501C77.6432 75.1199 77.764 74.3706 78.0286 73.6022C78.2988 72.8175 78.6691 72.1404 79.1395 71.5709C79.6099 71.0014 80.1419 70.5582 80.7356 70.2415C81.3292 69.9247 81.9736 69.7397 82.6685 69.6864C83.3635 69.6331 84.0706 69.7303 84.7899 69.978C85.6237 70.2651 86.2949 70.6791 86.8036 71.22C87.3122 71.7608 87.6645 72.3576 87.8604 73.0102L91.7243 71.2685Z" fill="#384C75"/>
<path d="M107.414 81.3065C107.774 80.2602 107.926 79.2474 107.871 78.2681C107.815 77.2888 107.565 76.38 107.122 75.5418C106.679 74.7035 106.055 73.9537 105.25 73.2924C104.444 72.631 103.478 72.1061 102.35 71.7177C101.205 71.3237 100.116 71.1407 99.0824 71.1688C98.0487 71.1968 97.1075 71.4076 96.2588 71.8012C95.4101 72.1947 94.6664 72.7615 94.0275 73.5016C93.3887 74.2417 92.8891 75.1348 92.5288 76.1811L88.8051 86.9956L92.974 88.4311L96.5795 77.9599C96.7427 77.4858 96.9588 77.0573 97.2278 76.6745C97.4968 76.2917 97.8156 75.9763 98.1844 75.7284C98.5532 75.4805 98.9799 75.3302 99.4643 75.2776C99.9487 75.225 100.485 75.3 101.074 75.5026C101.662 75.7053 102.131 75.9765 102.481 76.3162C102.83 76.6559 103.078 77.0384 103.224 77.4636C103.37 77.8888 103.427 78.3336 103.395 78.7981C103.363 79.2626 103.266 79.7319 103.102 80.206L99.497 90.6771L103.69 92.121L107.414 81.3065Z" fill="#384C75"/>
<path d="M122.96 79.3355L116.835 84.9345L115.413 84.4447L117.785 77.5539L113.666 76.1353L107.687 93.4973L114.308 95.7771C115.142 96.0642 115.985 96.2585 116.837 96.3598C117.689 96.4612 118.5 96.4159 119.27 96.2239C120.04 96.0319 120.729 95.6655 121.336 95.1247C121.943 94.5839 122.418 93.8148 122.761 92.8176C123.166 91.6405 123.188 90.5416 122.826 89.521C122.465 88.5004 121.779 87.6243 120.769 86.8925L127.864 81.0243L122.96 79.3355ZM118.642 91.317C118.501 91.7257 118.301 92.0272 118.043 92.2215C117.784 92.4158 117.495 92.536 117.178 92.5821C116.86 92.6281 116.525 92.618 116.173 92.5517C115.821 92.4853 115.49 92.3986 115.179 92.2917L112.948 91.5233L114.341 87.4771L116.327 88.161C116.671 88.2792 117.012 88.4289 117.352 88.6099C117.692 88.791 117.984 89.0058 118.228 89.2542C118.471 89.5027 118.639 89.7982 118.732 90.1409C118.824 90.4836 118.794 90.8756 118.642 91.317Z" fill="#384C75"/>
<path d="M130.537 81.9446L124.559 99.3066L136.232 103.326L137.456 99.7701L129.83 97.1441L130.953 93.8826L138.162 96.3651L139.319 93.0055L132.109 90.523L133.351 86.9182L141.419 89.6962L142.651 86.1159L130.537 81.9446Z" fill="#384C75"/>
</g>
</g>
<defs>
<clipPath id="clip0_1_82">
<rect width="175" height="176" fill="white" transform="matrix(1 0 0 -1 0 176)"/>
</clipPath>
<clipPath id="clip1_1_82">
<rect width="175" height="176" fill="white" transform="matrix(1 0 0 -1 0 176)"/>
</clipPath>
</defs>
</svg>
