<svg width="160" height="160" viewBox="0 0 160 160" fill="none" xmlns="http://www.w3.org/2000/svg">
<g clip-path="url(#clip0_1_10)">
<g clip-path="url(#clip1_1_10)">
<g filter="url(#filter0_dd_1_10)">
<path d="M51.6797 144.375H108.32C120.857 144.375 125.404 143.07 129.987 140.618C134.57 138.167 138.167 134.57 140.618 129.987C143.07 125.404 144.375 120.857 144.375 108.32V51.6797C144.375 39.1427 143.07 34.5964 140.618 30.0131C138.167 25.4298 134.57 21.8328 129.987 19.3816C125.404 16.9303 120.857 15.625 108.32 15.625H51.6797C39.1425 15.625 34.5964 16.9303 30.013 19.3816C25.4297 21.8328 21.8327 25.4298 19.3814 30.0131C16.9305 34.5964 15.625 39.1427 15.625 51.6797V108.32C15.625 120.857 16.9305 125.404 19.3816 129.987C21.8328 134.57 25.4298 138.167 30.0131 140.618C34.5966 143.07 39.1428 144.375 51.6797 144.375Z" fill="black"/>
</g>
<path d="M51.6797 144.375H108.32C120.857 144.375 125.404 143.07 129.987 140.618C134.57 138.167 138.167 134.57 140.618 129.987C143.07 125.404 144.375 120.857 144.375 108.32V51.6797C144.375 39.1427 143.07 34.5964 140.618 30.0131C138.167 25.4298 134.57 21.8328 129.987 19.3816C125.404 16.9303 120.857 15.625 108.32 15.625H51.6797C39.1425 15.625 34.5964 16.9303 30.013 19.3816C25.4297 21.8328 21.8327 25.4298 19.3814 30.0131C16.9305 34.5964 15.625 39.1427 15.625 51.6797V108.32C15.625 120.857 16.9305 125.404 19.3816 129.987C21.8328 134.57 25.4298 138.167 30.0131 140.618C34.5966 143.07 39.1428 144.375 51.6797 144.375Z" fill="url(#paint0_radial_1_10)"/>
<g filter="url(#filter1_ii_1_10)">
<path d="M51.6797 144.375H108.32C120.857 144.375 125.404 143.07 129.987 140.618C134.57 138.167 138.167 134.57 140.618 129.987C143.07 125.404 144.375 120.857 144.375 108.32V51.6797C144.375 39.1427 143.07 34.5964 140.618 30.0131C138.167 25.4298 134.57 21.8328 129.987 19.3816C125.404 16.9303 120.857 15.625 108.32 15.625H51.6797C39.1425 15.625 34.5964 16.9303 30.013 19.3816C25.4297 21.8328 21.8327 25.4298 19.3814 30.0131C16.9305 34.5964 15.625 39.1427 15.625 51.6797V108.32C15.625 120.857 16.9305 125.404 19.3816 129.987C21.8328 134.57 25.4298 138.167 30.0131 140.618C34.5966 143.07 39.1428 144.375 51.6797 144.375Z" fill="black"/>
</g>
<path fill-rule="evenodd" clip-rule="evenodd" d="M81.7956 126.238L81.8716 126.165L92.7291 115.308C93.6506 114.386 93.6747 112.906 92.8019 111.955L92.7291 111.879L81.8716 101.022C80.9491 100.099 79.4694 100.075 78.5181 100.949L78.4422 101.022L67.5853 111.879C66.6631 112.801 66.6391 114.281 67.5125 115.232L67.5853 115.308L78.4422 126.165C79.3641 127.087 80.8438 127.111 81.7956 126.238ZM78.4422 92.7278C79.3891 93.6741 80.9241 93.6741 81.8716 92.7278L92.7291 81.87C93.6753 80.9241 93.6753 79.3881 92.7291 78.4422L81.8716 67.5841C80.9241 66.6369 79.3891 66.6369 78.4422 67.5841L67.5853 78.4422C66.6381 79.3881 66.6381 80.9241 67.5853 81.87L78.4422 92.7278ZM81.8716 59.2906C80.9244 60.2366 79.3894 60.2366 78.4419 59.2906L67.5856 48.4328C66.6381 47.4866 66.6381 45.9503 67.5856 45.0044L78.4419 34.1466C79.3894 33.1994 80.9244 33.1994 81.8716 34.1466L92.7294 45.0044C93.6753 45.9503 93.6753 47.4866 92.7294 48.4328L81.8716 59.2906ZM109.521 95.2356L109.448 95.1597L98.59 84.3022C97.6691 83.3806 96.1888 83.3566 95.2381 84.2294L95.1622 84.3022L84.3041 95.1597C83.3819 96.0822 83.3575 97.5619 84.2313 98.5131L84.3041 98.5891L95.1622 109.446C96.0831 110.368 97.5638 110.392 98.5141 109.519L98.59 109.446L109.448 98.5891C110.369 97.6672 110.393 96.1875 109.521 95.2356ZM76.0106 95.1597C76.9566 96.1072 76.9566 97.6422 76.0106 98.5891L65.1525 109.446C64.2066 110.393 62.6706 110.393 61.7247 109.446L50.8669 98.5891C49.9194 97.6422 49.9194 96.1072 50.8669 95.1597L61.7247 84.3022C62.6706 83.3559 64.2066 83.3559 65.1525 84.3022L76.0106 95.1597ZM109.448 65.1516C110.394 64.2047 110.394 62.6697 109.448 61.7222L98.59 50.8647C97.6441 49.9184 96.1082 49.9184 95.1622 50.8647L84.3044 61.7222C83.3569 62.6697 83.3569 64.2047 84.3044 65.1516L95.1622 76.0084C96.1082 76.9556 97.6441 76.9556 98.59 76.0084L109.448 65.1516ZM76.0106 61.7222C76.9566 62.6694 76.9566 64.2044 76.0106 65.1519L65.1528 76.0081C64.2069 76.9556 62.6706 76.9556 61.7244 76.0081L50.8666 65.1519C49.9194 64.2044 49.9194 62.6694 50.8666 61.7222L61.7244 50.8644C62.6706 49.9184 64.2069 49.9184 65.1528 50.8644L76.0106 61.7222Z" fill="url(#paint1_linear_1_10)"/>
<path style="mix-blend-mode:screen" opacity="0.3" fill-rule="evenodd" clip-rule="evenodd" d="M108.32 143.906C120.725 143.906 125.229 142.631 129.766 140.205C134.266 137.798 137.798 134.266 140.205 129.766C142.631 125.229 143.906 120.725 143.906 108.32V51.6797C143.906 39.2755 142.631 34.7708 140.205 30.2342C137.798 25.7338 134.266 22.2017 129.766 19.7948C125.229 17.3688 120.725 16.0938 108.32 16.0938H51.6797C39.2755 16.0938 34.7708 17.3688 30.2342 19.7948C25.7337 22.2017 22.2017 25.7338 19.7948 30.2342C17.3687 34.7708 16.0938 39.2755 16.0938 51.6795V108.32C16.0938 120.725 17.3687 125.229 19.7948 129.766C22.2017 134.266 25.7337 137.798 30.2342 140.205C34.7708 142.631 39.2755 143.906 51.6795 143.906H108.32Z" stroke="url(#paint2_linear_1_10)" stroke-width="0.9375"/>
</g>
</g>
<defs>
<filter id="filter0_dd_1_10" x="10.625" y="13.4375" width="138.75" height="139.062" filterUnits="userSpaceOnUse" color-interpolation-filters="sRGB">
<feFlood flood-opacity="0" result="BackgroundImageFix"/>
<feColorMatrix in="SourceAlpha" type="matrix" values="0 0 0 0 0 0 0 0 0 0 0 0 0 0 0 0 0 0 127 0" result="hardAlpha"/>
<feOffset dy="0.9375"/>
<feGaussianBlur stdDeviation="1.5625"/>
<feColorMatrix type="matrix" values="0 0 0 0 0 0 0 0 0 0 0 0 0 0 0 0 0 0 0.15 0"/>
<feBlend mode="normal" in2="BackgroundImageFix" result="effect1_dropShadow_1_10"/>
<feColorMatrix in="SourceAlpha" type="matrix" values="0 0 0 0 0 0 0 0 0 0 0 0 0 0 0 0 0 0 127 0" result="hardAlpha"/>
<feOffset dy="3.125"/>
<feGaussianBlur stdDeviation="2.5"/>
<feColorMatrix type="matrix" values="0 0 0 0 0 0 0 0 0 0 0 0 0 0 0 0 0 0 0.15 0"/>
<feBlend mode="normal" in2="effect1_dropShadow_1_10" result="effect2_dropShadow_1_10"/>
<feBlend mode="normal" in="SourceGraphic" in2="effect2_dropShadow_1_10" result="shape"/>
</filter>
<filter id="filter1_ii_1_10" x="15.625" y="14.6875" width="128.75" height="129.688" filterUnits="userSpaceOnUse" color-interpolation-filters="sRGB">
<feFlood flood-opacity="0" result="BackgroundImageFix"/>
<feBlend mode="normal" in="SourceGraphic" in2="BackgroundImageFix" result="shape"/>
<feColorMatrix in="SourceAlpha" type="matrix" values="0 0 0 0 0 0 0 0 0 0 0 0 0 0 0 0 0 0 127 0" result="hardAlpha"/>
<feOffset dy="-1.875"/>
<feGaussianBlur stdDeviation="0.46875"/>
<feComposite in2="hardAlpha" operator="arithmetic" k2="-1" k3="1"/>
<feColorMatrix type="matrix" values="0 0 0 0 0 0 0 0 0 0 0 0 0 0 0 0 0 0 0.25 0"/>
<feBlend mode="normal" in2="shape" result="effect1_innerShadow_1_10"/>
<feColorMatrix in="SourceAlpha" type="matrix" values="0 0 0 0 0 0 0 0 0 0 0 0 0 0 0 0 0 0 127 0" result="hardAlpha"/>
<feOffset dy="-0.9375"/>
<feGaussianBlur stdDeviation="0.46875"/>
<feComposite in2="hardAlpha" operator="arithmetic" k2="-1" k3="1"/>
<feColorMatrix type="matrix" values="0 0 0 0 0 0 0 0 0 0 0 0 0 0 0 0 0 0 0.2 0"/>
<feBlend mode="normal" in2="effect1_innerShadow_1_10" result="effect2_innerShadow_1_10"/>
</filter>
<radialGradient id="paint0_radial_1_10" cx="0" cy="0" r="1" gradientUnits="userSpaceOnUse" gradientTransform="translate(80.0003 3075.37) scale(16234.3)">
<stop stop-color="#4E5460"/>
<stop offset="0.94796" stop-color="#2B2F36"/>
</radialGradient>
<linearGradient id="paint1_linear_1_10" x1="3049.93" y1="682.088" x2="3049.93" y2="-9772.78" gradientUnits="userSpaceOnUse">
<stop stop-color="#F1D2B7"/>
<stop offset="1" stop-color="#D9B291"/>
</linearGradient>
<linearGradient id="paint2_linear_1_10" x1="6406.72" y1="-11426.7" x2="6406.72" y2="1360.04" gradientUnits="userSpaceOnUse">
<stop stop-color="white" stop-opacity="0"/>
<stop offset="0.34629" stop-color="white" stop-opacity="0.15"/>
<stop offset="0.56616" stop-color="white" stop-opacity="0.2"/>
<stop offset="1" stop-color="white" stop-opacity="0.4"/>
</linearGradient>
<clipPath id="clip0_1_10">
<rect width="160" height="160" fill="white" transform="matrix(1 0 0 -1 0 160)"/>
</clipPath>
<clipPath id="clip1_1_10">
<rect width="160" height="160" fill="white" transform="matrix(1 0 0 -1 0 160)"/>
</clipPath>
</defs>
</svg>
