<svg width="227" height="114" viewBox="0 0 227 114" fill="none" xmlns="http://www.w3.org/2000/svg">
<g clip-path="url(#clip0_1_660)">
<g clip-path="url(#clip1_1_660)">
<path d="M103.631 1.11303C106.688 0.0232956 109.971 -0.271822 113.174 0.253468L215.101 16.9825C219.405 17.6893 222.687 21.2125 223.08 25.5486L226.951 68.3654C227.343 72.7014 224.747 76.7538 220.638 78.2179L123.359 112.887C120.302 113.977 117.019 114.272 113.816 113.747L11.8893 97.0175C7.58419 96.3108 4.3029 92.7875 3.9108 88.4515L0.0390122 45.6347C-0.353086 41.2986 2.24316 37.2463 6.35191 35.7821L103.631 1.11303Z" fill="#99D7F1"/>
<path d="M81.7464 48.8224C81.8346 49.8303 81.7088 50.6949 81.3692 51.4162C81.0296 52.1376 80.5479 52.7357 79.924 53.2105C79.3002 53.6853 78.5749 54.0508 77.748 54.307C76.9212 54.5632 76.0647 54.7301 75.1785 54.8076L67.828 55.4507L66.2135 36.9964L73.5639 36.3533C74.2764 36.291 75.0127 36.301 75.7728 36.3833C76.533 36.4656 77.2327 36.6583 77.8721 36.9613C78.5114 37.2643 79.0488 37.7032 79.4843 38.278C79.9198 38.8527 80.1786 39.6093 80.2607 40.5476C80.3504 41.5729 80.1465 42.4443 79.649 43.162C79.1515 43.8796 78.4638 44.4257 77.5861 44.8002L77.5906 44.8523C78.1195 44.8936 78.6245 45.0114 79.1055 45.2057C79.5865 45.4 80.0124 45.6647 80.3832 46C80.754 46.3353 81.0606 46.7374 81.303 47.2065C81.5454 47.6756 81.6932 48.2142 81.7464 48.8224ZM76.0124 41.5234C75.9577 40.8978 75.6788 40.4626 75.1759 40.2177C74.6729 39.9728 73.9523 39.8914 73.0139 39.9734L70.8244 40.165L71.1574 43.9706L73.5554 43.7608C74.3895 43.6878 75.0219 43.4617 75.4528 43.0826C75.8836 42.7034 76.0702 42.1837 76.0124 41.5234ZM77.2527 48.7953C77.1858 48.0307 76.8527 47.5258 76.2534 47.2806C75.6542 47.0353 74.8767 46.9545 73.9209 47.0382L71.4447 47.2548L71.8141 51.4774L74.3164 51.2585C74.6639 51.2281 75.0219 51.1661 75.3901 51.0726C75.7584 50.9791 76.0878 50.8408 76.3782 50.6578C76.6686 50.4748 76.8968 50.2316 77.0629 49.9282C77.229 49.6247 77.2922 49.2471 77.2527 48.7953Z" fill="#556265"/>
<path d="M104.235 42.8889C104.363 44.3486 104.228 45.7043 103.829 46.9561C103.431 48.2079 102.822 49.303 102.003 50.2414C101.183 51.1799 100.177 51.9377 98.984 52.5148C97.7913 53.0919 96.4738 53.4436 95.0315 53.5698C93.5892 53.6959 92.235 53.578 90.9689 53.216C89.7028 52.854 88.5846 52.2821 87.6145 51.5002C86.6443 50.7184 85.8544 49.7456 85.2448 48.582C84.6352 47.4184 84.2666 46.1068 84.1389 44.6471C84.0097 43.1701 84.1449 41.8144 84.5447 40.58C84.9445 39.3456 85.5554 38.2722 86.3773 37.3598C87.1993 36.4474 88.203 35.7117 89.3886 35.1527C90.5741 34.5937 91.888 34.2512 93.3303 34.125C94.7726 33.9988 96.1304 34.1076 97.4037 34.4515C98.677 34.7953 99.7976 35.3452 100.765 36.101C101.733 36.8568 102.521 37.8078 103.129 38.954C103.737 40.1002 104.106 41.4119 104.235 42.8889ZM99.4653 43.3062C99.3954 42.5069 99.1997 41.7711 98.8782 41.0988C98.5568 40.4265 98.1441 39.8629 97.6403 39.408C97.1365 38.953 96.5462 38.6107 95.8695 38.381C95.1928 38.1513 94.4635 38.0706 93.6815 38.139C92.8995 38.2075 92.1996 38.4131 91.5818 38.7561C90.9639 39.0991 90.442 39.5387 90.0162 40.075C89.5903 40.6113 89.2818 41.238 89.0907 41.9551C88.8995 42.6722 88.8389 43.4305 88.9089 44.2298C88.9818 45.0639 89.1794 45.8214 89.5017 46.5024C89.8239 47.1834 90.2373 47.7557 90.7419 48.2193C91.2464 48.6829 91.8327 49.03 92.5008 49.2605C93.1688 49.4909 93.8938 49.572 94.6758 49.5036C95.4577 49.4351 96.1576 49.2295 96.7755 48.8865C97.3934 48.5435 97.9148 48.0995 98.3399 47.5546C98.765 47.0096 99.0771 46.3738 99.2762 45.6472C99.4753 44.9207 99.5383 44.1403 99.4653 43.3062Z" fill="#556265"/>
<path d="M127.069 40.8911C127.196 42.3508 127.061 43.7065 126.663 44.9583C126.265 46.2101 125.656 47.3052 124.836 48.2437C124.016 49.1821 123.01 49.9399 121.817 50.517C120.625 51.0941 119.307 51.4458 117.865 51.572C116.423 51.6982 115.068 51.5803 113.802 51.2183C112.536 50.8563 111.418 50.2843 110.448 49.5025C109.478 48.7206 108.688 47.7479 108.078 46.5843C107.469 45.4207 107.1 44.109 106.972 42.6494C106.843 41.1723 106.978 39.8166 107.378 38.5822C107.778 37.3478 108.389 36.2744 109.211 35.362C110.033 34.4496 111.036 33.7139 112.222 33.1549C113.408 32.596 114.721 32.2534 116.164 32.1272C117.606 32.001 118.964 32.1098 120.237 32.4537C121.51 32.7976 122.631 33.3474 123.599 34.1032C124.567 34.859 125.355 35.81 125.963 36.9562C126.571 38.1025 126.94 39.4141 127.069 40.8911ZM122.299 41.3085C122.229 40.5091 122.033 39.7733 121.712 39.101C121.39 38.4288 120.978 37.8652 120.474 37.4102C119.97 36.9552 119.38 36.6129 118.703 36.3832C118.026 36.1535 117.297 36.0728 116.515 36.1413C115.733 36.2097 115.033 36.4154 114.415 36.7583C113.797 37.1013 113.275 37.5409 112.85 38.0772C112.424 38.6135 112.115 39.2402 111.924 39.9573C111.733 40.6745 111.672 41.4327 111.742 42.232C111.815 43.0661 112.013 43.8237 112.335 44.5046C112.657 45.1856 113.071 45.7579 113.575 46.2215C114.08 46.6852 114.666 47.0322 115.334 47.2627C116.002 47.4932 116.727 47.5742 117.509 47.5058C118.291 47.4374 118.991 47.2317 119.609 46.8887C120.227 46.5457 120.748 46.1018 121.173 45.5568C121.598 45.0118 121.911 44.376 122.11 43.6495C122.309 42.9229 122.372 42.1426 122.299 41.3085Z" fill="#556265"/>
<path d="M140.034 35.3707C139.609 34.9175 139.075 34.5746 138.433 34.3419C137.791 34.1091 137.184 34.0178 136.61 34.068C136.315 34.0938 136.017 34.1461 135.718 34.2249C135.418 34.3036 135.153 34.4275 134.923 34.5965C134.693 34.7654 134.505 34.9745 134.361 35.2235C134.216 35.4725 134.16 35.7795 134.192 36.1444C134.219 36.4572 134.307 36.7121 134.455 36.9093C134.604 37.1064 134.811 37.2721 135.077 37.4065C135.342 37.5408 135.655 37.6579 136.014 37.7579C136.373 37.8578 136.775 37.9583 137.222 38.0593C137.866 38.2131 138.538 38.3863 139.237 38.579C139.937 38.7716 140.583 39.0522 141.176 39.4206C141.768 39.789 142.274 40.2656 142.693 40.8506C143.112 41.4356 143.362 42.1885 143.442 43.1095C143.535 44.1695 143.42 45.1032 143.096 45.9107C142.773 46.7182 142.303 47.4028 141.687 47.9645C141.071 48.5262 140.347 48.9659 139.517 49.2837C138.687 49.6015 137.82 49.7999 136.917 49.8789C135.596 49.9945 134.299 49.876 133.025 49.5234C131.75 49.1709 130.668 48.6046 129.777 47.8246L132.436 44.5977C132.936 45.1142 133.572 45.527 134.343 45.836C135.115 46.145 135.865 46.2676 136.595 46.2037C136.925 46.1748 137.244 46.1119 137.55 46.0151C137.857 45.9182 138.121 45.7813 138.342 45.6044C138.563 45.4275 138.731 45.2026 138.847 44.9298C138.964 44.657 139.006 44.3381 138.974 43.9732C138.943 43.6257 138.831 43.3378 138.636 43.1098C138.441 42.8817 138.174 42.6818 137.835 42.5101C137.496 42.3384 137.08 42.1909 136.588 42.0676C136.095 41.9443 135.537 41.8137 134.912 41.6758C134.304 41.5364 133.707 41.361 133.119 41.1498C132.532 40.9385 131.999 40.6481 131.52 40.2785C131.041 39.9089 130.641 39.4448 130.321 38.8863C130.001 38.3277 129.804 37.6314 129.731 36.7973C129.641 35.7721 129.773 34.8763 130.126 34.11C130.48 33.3436 130.975 32.6962 131.611 32.1678C132.248 31.6393 132.982 31.2292 133.815 30.9375C134.647 30.6458 135.498 30.4619 136.367 30.3859C137.409 30.2947 138.49 30.3927 139.61 30.68C140.729 30.9673 141.73 31.4488 142.612 32.1246L140.034 35.3707Z" fill="#556265"/>
<path d="M153.814 33.1671L155.095 47.8158L150.638 48.2058L149.356 33.557L144.143 34.0131L143.81 30.2075L158.694 28.9054L159.027 32.711L153.814 33.1671Z" fill="#556265"/>
<path d="M42.0707 69.2082L43.3523 83.857L38.8951 84.2469L37.6135 69.5982L32.4005 70.0543L32.0675 66.2487L46.9509 64.9466L47.2838 68.7521L42.0707 69.2082Z" fill="#556265"/>
<path d="M51.2501 83.166L49.6356 64.7117L62.0427 63.6262L62.3734 67.4057L54.2671 68.1149L54.5704 71.5816L62.2336 70.9111L62.546 74.4821L54.8828 75.1526L55.218 78.9842L63.7935 78.2339L64.1265 82.0395L51.2501 83.166Z" fill="#556265"/>
<path d="M80.2349 80.6302L78.4843 77.1325L71.3424 77.7573L70.304 81.499L65.4558 81.9232L71.5827 62.7916L75.9095 62.413L85.1873 80.1969L80.2349 80.6302ZM74.0989 67.5355L72.3072 74.0746L76.9468 73.6687L74.0989 67.5355Z" fill="#556265"/>
<path d="M104.111 78.5413L103.073 65.4734L102.994 65.4802L99.3408 78.9586L96.213 79.2322L90.4048 66.5817L90.3266 66.5885L91.5733 79.6382L87.3768 80.0053L85.7622 61.551L92.0961 60.9969L97.328 72.4634L97.4322 72.4543L100.411 60.2694L106.849 59.7061L108.464 78.1604L104.111 78.5413Z" fill="#556265"/>
<path d="M132.47 76.0602L128.065 76.4456L123.323 64.2795L123.245 64.2863L120.688 77.0909L116.257 77.4786L109.404 59.4826L114.2 59.063L118.193 71.0844L118.271 71.0776L120.481 58.5135L125.121 58.1076L129.505 70.0947L129.584 70.0879L131.481 57.5511L136.121 57.1452L132.47 76.0602Z" fill="#556265"/>
<path d="M158.399 64.4149C158.526 65.8746 158.391 67.2303 157.993 68.4821C157.595 69.7339 156.986 70.829 156.166 71.7674C155.346 72.7059 154.34 73.4637 153.147 74.0408C151.955 74.6179 150.637 74.9696 149.195 75.0958C147.753 75.2219 146.398 75.104 145.132 74.742C143.866 74.38 142.748 73.8081 141.778 73.0262C140.808 72.2444 140.018 71.2716 139.408 70.108C138.799 68.9444 138.43 67.6328 138.302 66.1731C138.173 64.6961 138.308 63.3404 138.708 62.106C139.108 60.8715 139.719 59.7981 140.541 58.8858C141.363 57.9734 142.366 57.2377 143.552 56.6787C144.738 56.1197 146.051 55.7771 147.494 55.651C148.936 55.5248 150.294 55.6336 151.567 55.9775C152.84 56.3213 153.961 56.8712 154.929 57.627C155.897 58.3828 156.685 59.3338 157.293 60.48C157.901 61.6262 158.27 62.9379 158.399 64.4149ZM153.629 64.8322C153.559 64.0329 153.363 63.2971 153.042 62.6248C152.72 61.9525 152.308 61.3889 151.804 60.934C151.3 60.479 150.71 60.1367 150.033 59.907C149.356 59.6773 148.627 59.5966 147.845 59.665C147.063 59.7334 146.363 59.9391 145.745 60.2821C145.127 60.6251 144.605 61.0647 144.18 61.601C143.754 62.1373 143.445 62.764 143.254 63.4811C143.063 64.1982 143.002 64.9565 143.072 65.7558C143.145 66.5899 143.343 67.3474 143.665 68.0284C143.987 68.7094 144.401 69.2817 144.905 69.7453C145.41 70.2089 145.996 70.556 146.664 70.7865C147.332 71.0169 148.057 71.098 148.839 71.0296C149.621 70.9611 150.321 70.7554 150.939 70.4125C151.557 70.0695 152.078 69.6255 152.503 69.0806C152.928 68.5356 153.241 67.8998 153.44 67.1732C153.639 66.4467 153.702 65.6663 153.629 64.8322Z" fill="#556265"/>
<path d="M172.689 72.5415L168.06 65.566L166.548 65.6983L167.189 73.0227L162.81 73.4058L161.196 54.9515L168.233 54.3358C169.119 54.2582 169.992 54.2738 170.851 54.3826C171.709 54.4913 172.492 54.7336 173.199 55.1095C173.906 55.4854 174.491 56.0121 174.953 56.6896C175.415 57.367 175.692 58.2358 175.785 59.2958C175.894 60.5469 175.647 61.6279 175.044 62.5386C174.441 63.4494 173.556 64.1397 172.389 64.6095L177.902 72.0854L172.689 72.5415ZM171.387 59.7594C171.349 59.3249 171.227 58.981 171.021 58.7277C170.815 58.4743 170.562 58.2863 170.262 58.1637C169.963 58.041 169.632 57.9692 169.272 57.9483C168.911 57.9273 168.565 57.9313 168.235 57.9602L165.863 58.1677L166.239 62.4685L168.351 62.2838C168.716 62.2518 169.087 62.1887 169.464 62.0945C169.84 62.0002 170.179 61.8612 170.478 61.6774C170.777 61.4937 171.013 61.2454 171.187 60.9325C171.361 60.6196 171.428 60.2285 171.387 59.7594Z" fill="#556265"/>
<path d="M192.029 70.8494L184.431 62.9518L184.379 62.9564L185.122 71.4537L180.743 71.8368L179.129 53.3825L183.507 52.9994L184.164 60.5063L184.242 60.4994L190.18 52.4156L195.758 51.9276L188.552 61.1205L197.842 70.3409L192.029 70.8494Z" fill="#556265"/>
</g>
</g>
<defs>
<clipPath id="clip0_1_660">
<rect width="226.93" height="113.97" fill="white" transform="scale(1.00026)"/>
</clipPath>
<clipPath id="clip1_1_660">
<rect width="226.93" height="113.969" fill="white" transform="translate(0 0.000366307) scale(1.00026)"/>
</clipPath>
</defs>
</svg>
