<svg width="227" height="114" viewBox="0 0 227 114" fill="none" xmlns="http://www.w3.org/2000/svg">
<g clip-path="url(#clip0_1_47)">
<g clip-path="url(#clip1_1_47)">
<path d="M103.631 112.887C106.688 113.977 109.971 114.272 113.174 113.747L215.101 97.0175C219.405 96.3107 222.687 92.7875 223.08 88.4514L226.951 45.6346C227.343 41.2986 224.747 37.2462 220.638 35.7821L123.359 1.11298C120.302 0.0232376 117.019 -0.271876 113.816 0.253416L11.8893 16.9825C7.58419 17.6892 4.3029 21.2125 3.9108 25.5485L0.0390122 68.3653C-0.353086 72.7014 2.24316 76.7537 6.35191 78.2179L103.631 112.887Z" fill="#99D7F1"/>
<path d="M81.7464 65.1775C81.8346 64.1697 81.7088 63.3051 81.3692 62.5837C81.0296 61.8623 80.5479 61.2643 79.924 60.7894C79.3002 60.3146 78.5749 59.9491 77.748 59.6929C76.9212 59.4367 76.0647 59.2699 75.1785 59.1923L67.828 58.5493L66.2135 77.0036L73.5639 77.6466C74.2764 77.709 75.0127 77.699 75.7728 77.6166C76.533 77.5343 77.2327 77.3416 77.8721 77.0386C78.5114 76.7356 79.0488 76.2967 79.4843 75.722C79.9198 75.1472 80.1786 74.3907 80.2607 73.4523C80.3504 72.4271 80.1465 71.5556 79.649 70.838C79.1515 70.1203 78.4638 69.5742 77.5861 69.1998L77.5906 69.1477C78.1195 69.1064 78.6245 68.9886 79.1055 68.7943C79.5865 68.6 80.0124 68.3352 80.3832 67.9999C80.754 67.6647 81.0606 67.2625 81.303 66.7934C81.5454 66.3243 81.6932 65.7857 81.7464 65.1775ZM76.0124 72.4765C75.9577 73.1021 75.6788 73.5374 75.1759 73.7823C74.6729 74.0272 73.9523 74.1086 73.0139 74.0265L70.8244 73.8349L71.1574 70.0294L73.5554 70.2392C74.3895 70.3122 75.0219 70.5382 75.4528 70.9174C75.8836 71.2965 76.0702 71.8162 76.0124 72.4765ZM77.2527 65.2046C77.1858 65.9692 76.8527 66.4741 76.2534 66.7194C75.6542 66.9646 74.8767 67.0454 73.9209 66.9618L71.4447 66.7451L71.8141 62.5226L74.3164 62.7415C74.6639 62.7719 75.0219 62.8338 75.3901 62.9273C75.7584 63.0208 76.0878 63.1591 76.3782 63.3421C76.6686 63.5251 76.8968 63.7683 77.0629 64.0718C77.229 64.3752 77.2922 64.7528 77.2527 65.2046Z" fill="#556265"/>
<path d="M104.235 71.1111C104.363 69.6515 104.228 68.2958 103.829 67.044C103.431 65.7922 102.822 64.6971 102.003 63.7586C101.183 62.8202 100.177 62.0624 98.984 61.4853C97.7913 60.9081 96.4738 60.5565 95.0315 60.4303C93.5892 60.3041 92.235 60.422 90.9689 60.784C89.7028 61.146 88.5846 61.718 87.6145 62.4998C86.6443 63.2817 85.8544 64.2544 85.2448 65.418C84.6352 66.5816 84.2666 67.8933 84.1389 69.3529C84.0097 70.83 84.1449 72.1857 84.5447 73.4201C84.9445 74.6545 85.5554 75.7279 86.3773 76.6403C87.1993 77.5527 88.203 78.2884 89.3886 78.8473C90.5741 79.4063 91.888 79.7489 93.3303 79.8751C94.7726 80.0013 96.1304 79.8924 97.4037 79.5486C98.677 79.2047 99.7976 78.6549 100.765 77.8991C101.733 77.1433 102.521 76.1923 103.129 75.046C103.737 73.8998 104.106 72.5882 104.235 71.1111ZM99.4653 70.6938C99.3954 71.4932 99.1997 72.229 98.8782 72.9012C98.5568 73.5735 98.1441 74.1371 97.6403 74.5921C97.1365 75.047 96.5462 75.3894 95.8695 75.6191C95.1928 75.8488 94.4635 75.9294 93.6815 75.861C92.8995 75.7926 92.1996 75.5869 91.5818 75.2439C90.9639 74.901 90.442 74.4613 90.0162 73.9251C89.5903 73.3888 89.2818 72.7621 89.0907 72.0449C88.8995 71.3278 88.8389 70.5696 88.9089 69.7702C88.9818 68.9362 89.1794 68.1786 89.5017 67.4977C89.8239 66.8167 90.2373 66.2444 90.7419 65.7808C91.2464 65.3171 91.8327 64.9701 92.5008 64.7396C93.1688 64.5091 93.8938 64.4281 94.6758 64.4965C95.4577 64.5649 96.1576 64.7706 96.7755 65.1136C97.3934 65.4565 97.9148 65.9005 98.3399 66.4455C98.765 66.9905 99.0771 67.6263 99.2762 68.3528C99.4753 69.0794 99.5383 69.8597 99.4653 70.6938Z" fill="#556265"/>
<path d="M127.069 73.1089C127.196 71.6492 127.061 70.2935 126.663 69.0417C126.265 67.7899 125.656 66.6948 124.836 65.7563C124.016 64.8179 123.01 64.0601 121.817 63.483C120.625 62.9059 119.307 62.5542 117.865 62.428C116.423 62.3018 115.068 62.4197 113.802 62.7817C112.536 63.1437 111.418 63.7157 110.448 64.4975C109.478 65.2794 108.688 66.2521 108.078 67.4157C107.469 68.5793 107.1 69.891 106.972 71.3506C106.843 72.8277 106.978 74.1834 107.378 75.4178C107.778 76.6522 108.389 77.7256 109.211 78.638C110.033 79.5504 111.036 80.2861 112.222 80.8451C113.408 81.404 114.721 81.7466 116.164 81.8728C117.606 81.999 118.964 81.8902 120.237 81.5463C121.51 81.2024 122.631 80.6526 123.599 79.8968C124.567 79.141 125.355 78.19 125.963 77.0438C126.571 75.8975 126.94 74.5859 127.069 73.1089ZM122.299 72.6915C122.229 73.4909 122.033 74.2267 121.712 74.899C121.39 75.5712 120.978 76.1348 120.474 76.5898C119.97 77.0448 119.38 77.3871 118.703 77.6168C118.026 77.8465 117.297 77.9272 116.515 77.8587C115.733 77.7903 115.033 77.5846 114.415 77.2417C113.797 76.8987 113.275 76.4591 112.85 75.9228C112.424 75.3865 112.115 74.7598 111.924 74.0427C111.733 73.3255 111.672 72.5673 111.742 71.768C111.815 70.9339 112.013 70.1763 112.335 69.4954C112.657 68.8144 113.071 68.2421 113.575 67.7785C114.08 67.3148 114.666 66.9678 115.334 66.7373C116.002 66.5068 116.727 66.4258 117.509 66.4942C118.291 66.5626 118.991 66.7683 119.609 67.1113C120.227 67.4543 120.748 67.8982 121.173 68.4432C121.598 68.9882 121.911 69.624 122.11 70.3505C122.309 71.0771 122.372 71.8574 122.299 72.6915Z" fill="#556265"/>
<path d="M140.034 78.6293C139.609 79.0825 139.075 79.4254 138.433 79.6581C137.791 79.8909 137.184 79.9822 136.61 79.932C136.315 79.9062 136.017 79.8539 135.718 79.7751C135.418 79.6964 135.153 79.5725 134.923 79.4035C134.693 79.2346 134.505 79.0255 134.361 78.7765C134.216 78.5275 134.16 78.2205 134.192 77.8556C134.219 77.5428 134.307 77.2879 134.455 77.0907C134.604 76.8936 134.811 76.7279 135.077 76.5935C135.342 76.4592 135.655 76.3421 136.014 76.2421C136.373 76.1422 136.775 76.0417 137.222 75.9407C137.866 75.7869 138.538 75.6137 139.237 75.421C139.937 75.2284 140.583 74.9478 141.176 74.5794C141.768 74.211 142.274 73.7344 142.693 73.1494C143.112 72.5644 143.362 71.8115 143.442 70.8905C143.535 69.8305 143.42 68.8968 143.096 68.0893C142.773 67.2818 142.303 66.5972 141.687 66.0355C141.071 65.4738 140.347 65.0341 139.517 64.7163C138.687 64.3985 137.82 64.2001 136.917 64.1211C135.596 64.0055 134.299 64.124 133.025 64.4766C131.75 64.8291 130.668 65.3954 129.777 66.1754L132.436 69.4023C132.936 68.8858 133.572 68.473 134.343 68.164C135.115 67.855 135.865 67.7324 136.595 67.7963C136.925 67.8252 137.244 67.8881 137.55 67.9849C137.857 68.0818 138.121 68.2187 138.342 68.3956C138.563 68.5725 138.731 68.7974 138.847 69.0702C138.964 69.343 139.006 69.6619 138.974 70.0268C138.943 70.3743 138.831 70.6622 138.636 70.8902C138.441 71.1183 138.174 71.3182 137.835 71.4899C137.496 71.6616 137.08 71.8091 136.588 71.9324C136.095 72.0557 135.537 72.1863 134.912 72.3242C134.304 72.4636 133.707 72.639 133.119 72.8502C132.532 73.0615 131.999 73.3519 131.52 73.7215C131.041 74.0911 130.641 74.5552 130.321 75.1137C130.001 75.6723 129.804 76.3686 129.731 77.2027C129.641 78.2279 129.773 79.1237 130.126 79.89C130.48 80.6564 130.975 81.3038 131.611 81.8322C132.248 82.3607 132.982 82.7708 133.815 83.0625C134.647 83.3542 135.498 83.5381 136.367 83.6141C137.409 83.7053 138.49 83.6073 139.61 83.32C140.729 83.0327 141.73 82.5512 142.612 81.8754L140.034 78.6293Z" fill="#556265"/>
<path d="M153.814 80.8329L155.095 66.1842L150.638 65.7942L149.356 80.443L144.143 79.9869L143.81 83.7925L158.694 85.0946L159.027 81.289L153.814 80.8329Z" fill="#556265"/>
<path d="M42.0707 44.7918L43.3523 30.1431L38.8951 29.7531L37.6135 44.4019L32.4005 43.9458L32.0675 47.7513L46.9509 49.0535L47.2838 45.2479L42.0707 44.7918Z" fill="#556265"/>
<path d="M51.2501 30.8341L49.6356 49.2884L62.0427 50.3739L62.3734 46.5944L54.2671 45.8852L54.5704 42.4185L62.2336 43.0889L62.546 39.518L54.8828 38.8475L55.218 35.0159L63.7935 35.7661L64.1265 31.9606L51.2501 30.8341Z" fill="#556265"/>
<path d="M80.2349 33.3698L78.4843 36.8675L71.3424 36.2427L70.304 32.501L65.4558 32.0768L71.5827 51.2084L75.9095 51.587L85.1873 33.8031L80.2349 33.3698ZM74.0989 46.4645L72.3072 39.9254L76.9468 40.3313L74.0989 46.4645Z" fill="#556265"/>
<path d="M104.111 35.4587L103.073 48.5266L102.994 48.5198L99.3408 35.0414L96.213 34.7678L90.4048 47.4183L90.3266 47.4115L91.5733 34.3618L87.3768 33.9947L85.7622 52.449L92.0961 53.0031L97.328 41.5366L97.4322 41.5457L100.411 53.7306L106.849 54.2939L108.464 35.8396L104.111 35.4587Z" fill="#556265"/>
<path d="M132.47 37.9398L128.065 37.5544L123.323 49.7205L123.245 49.7136L120.688 36.909L116.257 36.5214L109.404 54.5173L114.2 54.9369L118.193 42.9155L118.271 42.9223L120.481 55.4865L125.121 55.8924L129.505 43.9052L129.584 43.912L131.481 56.4488L136.121 56.8547L132.47 37.9398Z" fill="#556265"/>
<path d="M158.399 49.5851C158.526 48.1254 158.391 46.7697 157.993 45.5179C157.595 44.2661 156.986 43.171 156.166 42.2326C155.346 41.2941 154.34 40.5363 153.147 39.9592C151.955 39.3821 150.637 39.0304 149.195 38.9042C147.753 38.7781 146.398 38.896 145.132 39.258C143.866 39.62 142.748 40.1919 141.778 40.9738C140.808 41.7556 140.018 42.7284 139.408 43.892C138.799 45.0556 138.43 46.3672 138.302 47.8269C138.173 49.3039 138.308 50.6596 138.708 51.894C139.108 53.1285 139.719 54.2019 140.541 55.1142C141.363 56.0266 142.366 56.7623 143.552 57.3213C144.738 57.8803 146.051 58.2229 147.494 58.349C148.936 58.4752 150.294 58.3664 151.567 58.0225C152.84 57.6787 153.961 57.1288 154.929 56.373C155.897 55.6172 156.685 54.6662 157.293 53.52C157.901 52.3738 158.27 51.0621 158.399 49.5851ZM153.629 49.1678C153.559 49.9671 153.363 50.7029 153.042 51.3752C152.72 52.0475 152.308 52.6111 151.804 53.066C151.3 53.521 150.71 53.8633 150.033 54.093C149.356 54.3227 148.627 54.4034 147.845 54.335C147.063 54.2666 146.363 54.0609 145.745 53.7179C145.127 53.3749 144.605 52.9353 144.18 52.399C143.754 51.8627 143.445 51.236 143.254 50.5189C143.063 49.8018 143.002 49.0435 143.072 48.2442C143.145 47.4101 143.343 46.6526 143.665 45.9716C143.987 45.2906 144.401 44.7183 144.905 44.2547C145.41 43.7911 145.996 43.444 146.664 43.2135C147.332 42.9831 148.057 42.902 148.839 42.9704C149.621 43.0389 150.321 43.2446 150.939 43.5875C151.557 43.9305 152.078 44.3745 152.503 44.9194C152.928 45.4644 153.241 46.1002 153.44 46.8268C153.639 47.5533 153.702 48.3337 153.629 49.1678Z" fill="#556265"/>
<path d="M172.689 41.4585L168.06 48.434L166.548 48.3017L167.189 40.9773L162.81 40.5942L161.196 59.0485L168.233 59.6642C169.119 59.7418 169.992 59.7262 170.851 59.6174C171.709 59.5087 172.492 59.2664 173.199 58.8905C173.906 58.5146 174.491 57.9879 174.953 57.3104C175.415 56.633 175.692 55.7642 175.785 54.7042C175.894 53.4531 175.647 52.3721 175.044 51.4614C174.441 50.5506 173.556 49.8603 172.389 49.3905L177.902 41.9146L172.689 41.4585ZM171.387 54.2406C171.349 54.6751 171.227 55.019 171.021 55.2723C170.815 55.5257 170.562 55.7137 170.262 55.8363C169.963 55.959 169.632 56.0308 169.272 56.0517C168.911 56.0727 168.565 56.0687 168.235 56.0398L165.863 55.8323L166.239 51.5315L168.351 51.7162C168.716 51.7482 169.087 51.8113 169.464 51.9055C169.84 51.9998 170.179 52.1388 170.478 52.3226C170.777 52.5063 171.013 52.7546 171.187 53.0675C171.361 53.3804 171.428 53.7715 171.387 54.2406Z" fill="#556265"/>
<path d="M192.029 43.1507L184.431 51.0482L184.379 51.0437L185.122 42.5463L180.743 42.1632L179.129 60.6175L183.507 61.0006L184.164 53.4938L184.242 53.5006L190.18 61.5844L195.758 62.0724L188.552 52.8796L197.842 43.6592L192.029 43.1507Z" fill="#556265"/>
</g>
</g>
<defs>
<clipPath id="clip0_1_47">
<rect width="226.93" height="113.97" fill="white" transform="matrix(1.00026 0 0 -1.00026 0 114)"/>
</clipPath>
<clipPath id="clip1_1_47">
<rect width="226.93" height="113.969" fill="white" transform="matrix(1.00026 0 0 -1.00026 0 114)"/>
</clipPath>
</defs>
</svg>
