<svg width="202" height="127" viewBox="0 0 202 127" fill="none" xmlns="http://www.w3.org/2000/svg">
<g clip-path="url(#clip0_1_733)">
<g clip-path="url(#clip1_1_733)">
<path d="M39.0206 1.03663L187.891 48.1073C198.473 51.4574 204.34 62.7478 201 73.3324L188.697 112.272C185.392 122.745 174.304 128.602 163.818 125.487L163.48 125.383L14.6066 78.3072C4.0252 74.9571 -1.84217 63.6666 1.49769 53.082L13.8008 14.1428C17.1056 3.66924 28.1937 -2.18757 38.6798 0.927755L39.0179 1.03137C39.0192 1.03179 39.0205 1.03221 39.0206 1.03663Z" fill="#F6CF98"/>
<path d="M55.5579 41.2738L54.382 44.893L61.1741 47.0999L60.0385 50.5952L53.2463 48.3883L51.0313 55.2052L46.842 53.844L52.5445 36.2935L64.0962 40.0468L62.9202 43.666L55.5579 41.2738Z" fill="#A54E34"/>
<path d="M61.7402 58.6847L67.4427 41.1341L71.7064 42.5195L66.0039 60.0701L61.7402 58.6847Z" fill="#A54E34"/>
<path d="M80.8277 64.8866L78.999 57.441L73.2918 62.4381L68.2349 60.795L77.3949 53.5214L74.4332 43.4055L79.5397 45.0647L81.0399 51.5815L86.0344 47.175L90.9674 48.7778L82.7245 55.2531L86.0581 66.5861L80.8277 64.8866Z" fill="#A54E34"/>
<path d="M113.103 75.3735L108.914 74.0123L109.301 61.0108L109.227 60.9866L101.898 71.7329L97.6842 70.3636L98.4041 51.1941L102.965 52.6761L101.948 65.2538L102.022 65.278L108.939 54.6172L113.352 56.0509L112.706 68.7494L112.781 68.7736L119.4 58.0162L123.813 59.4499L113.103 75.3735Z" fill="#A54E34"/>
<path d="M120.54 77.7898L126.242 60.2392L130.506 61.6246L124.803 79.1752L120.54 77.7898Z" fill="#A54E34"/>
<path d="M137.758 67.9823L136.582 71.6015L143.374 73.8084L142.239 77.3036L135.446 75.0967L133.231 81.9137L129.042 80.5525L134.745 63.0019L146.296 66.7553L145.12 70.3744L137.758 67.9823Z" fill="#A54E34"/>
<path d="M143.94 85.3932L149.643 67.8426L153.907 69.228L148.204 86.7785L143.94 85.3932Z" fill="#A54E34"/>
</g>
</g>
<defs>
<clipPath id="clip0_1_733">
<rect width="201.52" height="126.33" fill="white" transform="scale(1.00238)"/>
</clipPath>
<clipPath id="clip1_1_733">
<rect width="201.52" height="126.326" fill="white" transform="translate(0 0.00201896) scale(1.00238)"/>
</clipPath>
</defs>
</svg>
