<svg width="202" height="127" viewBox="0 0 202 127" fill="none" xmlns="http://www.w3.org/2000/svg">
<g clip-path="url(#clip0_1_120)">
<g clip-path="url(#clip1_1_120)">
<path d="M39.0206 125.594L187.891 78.5236C198.473 75.1735 204.34 63.8831 201 53.2985L188.697 14.3592C185.392 3.88571 174.304 -1.9711 163.818 1.14422L163.48 1.24783L14.6066 48.3238C4.0252 51.6738 -1.84217 62.9643 1.49769 73.5489L13.8008 112.488C17.1056 122.962 28.1937 128.819 38.6798 125.703L39.0179 125.6C39.0192 125.599 39.0205 125.599 39.0206 125.594Z" fill="#F6CF98"/>
<path d="M55.5579 85.3571L54.382 81.7379L61.1741 79.531L60.0385 76.0357L53.2463 78.2426L51.0313 71.4257L46.842 72.7869L52.5445 90.3375L64.0962 86.5841L62.9202 82.9649L55.5579 85.3571Z" fill="#A54E34"/>
<path d="M61.7402 67.9462L67.4427 85.4967L71.7064 84.1114L66.0039 66.5608L61.7402 67.9462Z" fill="#A54E34"/>
<path d="M80.8277 61.7443L78.999 69.19L73.2918 64.1928L68.2349 65.8359L77.3949 73.1095L74.4332 83.2254L79.5397 81.5662L81.0399 75.0494L86.0344 79.4559L90.9674 77.8531L82.7245 71.3778L86.0581 60.0448L80.8277 61.7443Z" fill="#A54E34"/>
<path d="M113.103 51.2575L108.914 52.6187L109.301 65.6202L109.227 65.6443L101.898 54.8981L97.6842 56.2673L98.4041 75.4368L102.965 73.9548L101.948 61.3771L102.022 61.353L108.939 72.0137L113.352 70.58L112.706 57.8815L112.781 57.8573L119.4 68.6147L123.813 67.181L113.103 51.2575Z" fill="#A54E34"/>
<path d="M120.54 48.8411L126.242 66.3917L130.506 65.0063L124.803 47.4558L120.54 48.8411Z" fill="#A54E34"/>
<path d="M137.758 58.6487L136.582 55.0295L143.374 52.8226L142.239 49.3273L135.446 51.5342L133.231 44.7173L129.042 46.0785L134.745 63.629L146.296 59.8757L145.12 56.2565L137.758 58.6487Z" fill="#A54E34"/>
<path d="M143.94 41.2377L149.643 58.7883L153.907 57.403L148.204 39.8524L143.94 41.2377Z" fill="#A54E34"/>
</g>
</g>
<defs>
<clipPath id="clip0_1_120">
<rect width="201.52" height="126.33" fill="white" transform="matrix(1.00238 0 0 -1.00238 0 126.631)"/>
</clipPath>
<clipPath id="clip1_1_120">
<rect width="201.52" height="126.326" fill="white" transform="matrix(1.00238 0 0 -1.00238 0 126.629)"/>
</clipPath>
</defs>
</svg>
